<svg xmlns="http://www.w3.org/2000/svg" width="32" height="25" viewBox="0 0 32 25">
    <path fill="#858D93" stroke="#858D93" stroke-width=".8" d="M30.361 22.722c.353 0 .639.286.639.64 0 .352-.286.638-.639.638H1.64C1.286 24 1 23.714 1 23.361c0-.353.286-.639.639-.639H30.36zm0-10.222c.353 0 .639.286.639.639 0 .353-.286.639-.639.639H1.64c-.353 0-.639-.286-.639-.64 0-.352.286-.638.639-.638H30.36zm0-11.5c.353 0 .639.286.639.639 0 .353-.286.639-.639.639H1.64c-.353 0-.639-.286-.639-.64C1 1.287 1.286 1 1.639 1H30.36z"/>
</svg>
