<svg xmlns="http://www.w3.org/2000/svg" width="37" height="29" viewBox="0 0 37 29">
    <path fill="#858D93" stroke="#858D93" stroke-width=".5" d="M1.58 1c-.757 0-.79 1.174 0 1.174h4.272c.09.417.764 3.586 1.564 7.313.427 1.98.86 3.999 1.21 5.595.348 1.597.6 2.73.698 3.091.156.58.304 1.239.736 1.813.43.573 1.188.97 2.212.97h19.01c1.022 0 1.782-.397 2.214-.97.432-.576.58-1.233.737-1.814.171-.63.645-2.647 1.126-4.687.482-2.04.971-4.104 1.117-4.65.182-.662.241-1.355.028-1.983-.214-.626-.856-1.159-1.658-1.159H11.084c-.753 0-.779 1.174 0 1.174h23.762c.387 0 .435.082.531.364.098.28.09.791-.047 1.3-.171.63-.644 2.647-1.127 4.687-.482 2.04-.971 4.105-1.119 4.649-.161.594-.309 1.11-.54 1.416-.232.307-.504.497-1.263.497H12.27c-.76 0-1.029-.19-1.26-.497-.23-.306-.38-.822-.54-1.415-.061-.225-.336-1.44-.685-3.035-.348-1.594-.784-3.61-1.212-5.592-.847-3.959-1.66-7.775-1.66-7.775-.06-.271-.3-.466-.582-.466H1.58zm27.338 21.13c-1.634 0-2.97 1.321-2.97 2.935S27.283 28 28.917 28c1.633 0 2.97-1.32 2.97-2.935 0-1.614-1.337-2.935-2.97-2.935zm0 1.174c.99 0 1.782.782 1.782 1.761 0 .98-.792 1.761-1.782 1.761-.991 0-1.783-.782-1.783-1.76 0-.98.792-1.762 1.783-1.762zM14.66 22.13c-1.634 0-2.97 1.321-2.97 2.935S13.026 28 14.66 28c1.633 0 2.97-1.32 2.97-2.935 0-1.614-1.337-2.935-2.97-2.935zm0 1.174c.99 0 1.782.782 1.782 1.761 0 .98-.792 1.761-1.782 1.761-.991 0-1.783-.782-1.783-1.76 0-.98.792-1.762 1.783-1.762z"/>
</svg>
