<svg xmlns="http://www.w3.org/2000/svg" width="29" height="29" viewBox="0 0 29 29">
    <path fill="#858D93" fill-rule="evenodd" stroke="#FFF" stroke-width=".5" d="M27.462 25.595c-3.443-3.441-7.405-7.424-7.405-7.424 1.328-1.814 2.127-4.259 2.118-6.508C22.149 5.79 17.41 1.034 11.55 1 8.745.987 6.053 2.1 4.07 4.088 2.09 6.076.985 8.776 1 11.586c.026 5.873 4.766 10.63 10.626 10.663 2.254.01 4.7-.879 6.512-2.223l7.407 7.412c.4.42 1.5.906 2.08.217.58-.69.456-1.283-.163-2.06zm-15.76-5.567c-4.626-.026-8.367-3.767-8.388-8.387-.012-2.21.86-4.333 2.425-5.897 1.564-1.564 3.689-2.439 5.902-2.43 4.626.027 8.367 3.768 8.387 8.387.013 2.21-.86 4.334-2.424 5.898s-3.689 2.439-5.902 2.43z"/>
</svg>
