<?xml version="1.0" encoding="utf-8"?>
<!-- Generator: Adobe Illustrator 25.2.0, SVG Export Plug-In . SVG Version: 6.00 Build 0)  -->
<svg version="1.1" id="Layer_1" xmlns="http://www.w3.org/2000/svg" xmlns:xlink="http://www.w3.org/1999/xlink" x="0px" y="0px"
	 viewBox="0 0 16 11" style="enable-background:new 0 0 16 11;" xml:space="preserve">
<style type="text/css">
	.st0{fill:#010101;}
</style>
<path class="st0" d="M14.5,0h-13C0.67,0,0,0.62,0,1.38v8.25C0,10.38,0.67,11,1.5,11h13c0.83,0,1.5-0.62,1.5-1.38V1.38
	C16,0.62,15.33,0,14.5,0z M14.5,0.92c0.07,0,0.13,0.01,0.19,0.04L8,6.27L1.31,0.95C1.37,0.93,1.43,0.92,1.5,0.92L14.5,0.92z
	 M14.5,10.08h-13C1.22,10.08,1,9.88,1,9.62v-7.7l6.67,5.3C7.77,7.3,7.88,7.33,8,7.33c0.12,0,0.23-0.04,0.33-0.11L15,1.92v7.7
	C15,9.88,14.78,10.08,14.5,10.08z"/>
</svg>
