<svg xmlns="http://www.w3.org/2000/svg" width="47" height="32" fill="none" viewBox="0 0 47 32">
    <path fill="#F9F9F9" stroke="#979797" stroke-width=".502" d="M0.251 0.251H46.748999999999995V31.749000000000002H0.251z"/>
    <path fill="#F90" fill-rule="evenodd" d="M27.626 19.569c-1.757 1.244-4.305 1.905-6.5 1.905-3.074 0-5.843-1.09-7.939-2.904-.164-.143-.017-.337.18-.227 2.26 1.261 5.056 2.021 7.944 2.021 1.948 0 4.09-.387 6.06-1.189.297-.12.546.188.255.394z" clip-rule="evenodd"/>
    <path fill="#F90" fill-rule="evenodd" d="M29.538 18.769c-.225-.276-1.486-.13-2.053-.066-.171.02-.198-.124-.043-.228 1.006-.678 2.654-.482 2.846-.255.193.228-.05 1.813-.993 2.57-.146.116-.283.054-.219-.1.212-.508.688-1.645.462-1.921" clip-rule="evenodd"/>
    <path fill="#000" fill-rule="evenodd" d="M33.403 12.779c1.39 0 2.14 1.144 2.14 2.598 0 1.405-.829 2.52-2.14 2.52-1.364 0-2.106-1.144-2.106-2.569 0-1.435.751-2.55 2.106-2.55zm.009.94c-.69 0-.734.902-.734 1.464 0 .562-.009 1.765.726 1.765.725 0 .76-.97.76-1.561 0-.389-.018-.854-.14-1.223-.105-.319-.315-.445-.612-.445zM37.347 17.8h-.933c-.094-.005-.168-.077-.168-.165l-.001-4.609c.007-.084.085-.15.18-.15h.867c.082.004.15.057.167.129v.704h.017c.263-.63.63-.93 1.276-.93.42 0 .83.145 1.093.543.244.368.244.989.244 1.435v2.898c-.01.082-.086.145-.179.145h-.938c-.087-.005-.158-.066-.168-.145v-2.5c0-.505.061-1.242-.585-1.242-.227 0-.437.145-.542.369-.13.28-.148.562-.148.872v2.48c-.002.092-.083.166-.182.166zM27.325 13.688v-.657c0-.1.08-.167.175-.167h3.077c.098 0 .177.068.178.166l-.001.564c0 .095-.084.22-.232.415l-1.594 2.182c.592-.013 1.218.072 1.756.361.121.065.154.162.163.257v.703c0 .096-.11.208-.227.15-.947-.476-2.204-.528-3.25.006-.108.055-.22-.056-.22-.153v-.668c0-.106.002-.29.115-.452l1.846-2.54h-1.608c-.098 0-.177-.068-.178-.167zM24.872 15.6c0 .35.009.642-.175.953-.148.252-.385.408-.648.408-.36 0-.57-.263-.57-.65 0-.766.716-.905 1.393-.905v.194zm.944 2.189c-.062.053-.151.057-.22.02-.312-.247-.367-.362-.537-.597-.514.502-.879.652-1.544.652-.788 0-1.401-.466-1.401-1.4 0-.727.411-1.223.998-1.467.508-.213 1.217-.252 1.76-.31v-.116c0-.214.018-.466-.113-.651-.114-.165-.333-.233-.526-.233-.357 0-.674.175-.752.538-.017.08-.079.161-.163.165l-.908-.093c-.076-.017-.161-.076-.14-.189.21-1.055 1.204-1.373 2.094-1.373.456 0 1.051.116 1.41.447.455.407.412.951.412 1.544v1.398c0 .422.183.606.354.832.059.082.073.18-.003.239-.192.154-.531.437-.718.596l-.003-.002zM15.12 17.8h-.936c-.09-.005-.161-.07-.168-.151v-4.607c0-.093.081-.166.181-.166h.872c.092.004.165.07.171.155v.6h.017c.228-.58.656-.852 1.232-.852.586 0 .953.271 1.215.853.227-.582.742-.853 1.293-.853.393 0 .822.155 1.084.504.297.388.236.95.236 1.444l-.001 2.908c0 .091-.08.165-.18.165H19.2c-.094-.005-.168-.077-.168-.165v-2.442c0-.194.017-.679-.027-.863-.07-.31-.28-.398-.55-.398-.228 0-.463.146-.56.378-.095.233-.087.62-.087.883v2.442c0 .091-.081.165-.18.165h-.936c-.093-.005-.168-.077-.168-.165l-.001-2.442c0-.514.088-1.27-.576-1.27-.674 0-.647.736-.647 1.27v2.442c0 .091-.082.165-.181.165zM11.62 15.6c0 .35.008.642-.176.953-.15.252-.386.408-.649.408-.359 0-.57-.263-.57-.65 0-.766.717-.905 1.394-.905v.194zm.943 2.189c-.062.053-.152.057-.222.02-.31-.247-.366-.362-.536-.597-.514.502-.878.652-1.544.652-.788 0-1.401-.466-1.401-1.4 0-.727.412-1.223.998-1.467.509-.213 1.218-.252 1.761-.31v-.116c0-.214.018-.466-.114-.651-.114-.165-.333-.233-.525-.233-.357 0-.675.175-.753.538-.016.08-.078.161-.163.165l-.907-.093c-.077-.017-.162-.076-.14-.189.209-1.055 1.204-1.373 2.094-1.373.455 0 1.051.116 1.41.447.455.407.411.951.411 1.544v1.398c0 .422.183.606.354.832.06.082.073.18-.003.239-.191.154-.531.437-.718.596l-.002-.002z" clip-rule="evenodd"/>
</svg>
