<svg xmlns="http://www.w3.org/2000/svg" width="41" height="26" fill="none" viewBox="0 0 41 26">
    <path fill="#F9F9F9" stroke="#979797" stroke-width=".502" d="M.251.251h39.77v24.955H.25V.25z"/>
    <path fill="#2E77BC" fill-rule="evenodd" d="M28.879 14.654c.134.14.206.315.206.613 0 .622-.388.912-1.085.912h-1.345v-.62h1.34c.131 0 .224-.017.282-.072.048-.044.082-.11.082-.188 0-.084-.037-.151-.085-.191-.052-.044-.125-.065-.245-.065-.646-.021-1.455.02-1.455-.894 0-.42.263-.86.987-.86h1.385v.614h-1.267c-.126 0-.207.005-.277.053-.076.046-.104.116-.104.208 0 .109.065.183.152.215.073.025.15.033.268.033l.372.01c.375.009.632.074.789.232zM31.492 14.654c.135.14.207.315.207.613 0 .622-.389.912-1.085.912h-1.345v-.62h1.34c.13 0 .223-.017.281-.072.048-.044.082-.11.082-.188 0-.084-.037-.151-.084-.191-.053-.044-.126-.065-.246-.065-.646-.021-1.455.02-1.455-.894 0-.42.264-.86.987-.86h1.385v.614h-1.267c-.126 0-.207.005-.277.053-.075.046-.103.116-.103.208 0 .109.064.183.15.215.074.025.152.033.27.033l.371.01c.375.009.633.074.79.232zM23.936 13.288h2.306v.598h-1.618v.525h1.578v.59h-1.578v.575l1.618.003v.6h-2.306v-2.89zM23.064 14.835c.154.057.28.159.338.243.098.14.112.273.115.527v.573h-.694v-.361c0-.174.017-.432-.111-.566-.101-.103-.255-.128-.507-.128h-.738v1.056h-.694v-2.891h1.595c.349 0 .604.015.83.136.218.132.355.312.355.642 0 .461-.307.697-.489.77zm-.417-.36c-.093.055-.207.06-.341.06h-.84v-.649h.851c.123 0 .246.003.33.052.09.047.143.136.143.26s-.054.223-.143.278zM20.449 14.24c0 .803-.6.97-1.203.97h-.862v.969h-1.342l-.85-.957-.884.957h-2.736v-2.89h2.778l.85.947.878-.948h2.207c.548 0 1.164.152 1.164.952zm-1.172.382h-.893v-.736h.9c.25 0 .423.102.423.354 0 .25-.165.382-.43.382zm-1.58 1.294l-1.061-1.178 1.06-1.14v2.318zm-2.74-.34H13.26v-.575h1.516v-.59H13.26v-.525h1.731l.756.842-.79.848zM29.864 11.207h-.979l-1.31-2.17v2.17H26.17l-.268-.645h-1.435l-.26.645h-.81c-.335 0-.76-.075-1-.32-.243-.245-.37-.578-.37-1.103 0-.429.076-.82.373-1.13.223-.23.573-.337 1.049-.337h.668v.62h-.654c-.252 0-.395.037-.532.17-.118.122-.198.352-.198.655 0 .31.061.533.19.679.106.114.299.149.48.149h.311l.973-2.273h1.035l1.17 2.733V8.317h1.051l1.214 2.013V8.317h.708v2.89zM25.64 9.96l-.472-1.152-.47 1.152h.942zM20.983 8.317h.705v2.89h-.705v-2.89zM20.583 9.095c0 .461-.307.699-.487.77.151.058.28.16.342.244.097.143.114.272.114.53v.568h-.696l-.003-.365c0-.174.017-.424-.109-.563-.1-.101-.255-.123-.503-.123h-.742v1.05h-.69v-2.89h1.588c.353 0 .613.01.836.14.219.128.35.317.35.64zm-.903.406c-.095.058-.207.06-.342.06H18.5v-.642h.85c.12 0 .247.005.328.052.09.042.145.132.145.255 0 .127-.053.228-.142.275zM17.33 11.207h-2.307v-2.89h2.307v.602h-1.617v.52h1.578v.593h-1.578v.577h1.617v.598zM14.508 11.207H13.8l-.003-2.264-1.001 2.264h-.606L11.184 8.94v2.266H9.781l-.266-.645H8.077l-.268.645h-.75l1.237-2.89h1.026l1.175 2.736V8.317h1.127l.904 1.96.83-1.96h1.15v2.89zM9.266 9.96l-.473-1.152-.47 1.152h.943z" clip-rule="evenodd"/>
</svg>
