<svg xmlns="http://www.w3.org/2000/svg" width="48" height="33" fill="none" viewBox="0 0 48 33">
    <path fill="#F9F9F9" stroke="#979797" stroke-width=".502" d="M.251.251H47.75V32.75H.25V.25z"/>
    <g clip-path="url(#prefix__clip0)">
        <path fill="#000" d="M14.065 10.805c.372-.492.638-1.149.558-1.805-.558.027-1.223.383-1.622.848-.346.41-.665 1.093-.586 1.722.639.082 1.25-.273 1.65-.765zm.558.93c-.904-.055-1.676.519-2.101.519-.426 0-1.09-.492-1.81-.492-.93.027-1.781.547-2.26 1.422-.958 1.722-.266 4.265.691 5.66.453.683 1.011 1.449 1.73 1.422.691-.028.957-.465 1.782-.465.824 0 1.064.465 1.809.437.744-.027 1.223-.683 1.675-1.394.532-.793.745-1.559.745-1.586-.026-.027-1.463-.574-1.463-2.27-.026-1.422 1.117-2.105 1.17-2.133-.611-.984-1.622-1.093-1.968-1.12zM22.444 9.793c1.968 0 3.325 1.395 3.325 3.39 0 2.024-1.383 3.419-3.378 3.419h-2.155v3.527h-1.57V9.793h3.778zm-2.208 5.469h1.782c1.357 0 2.128-.766 2.128-2.051 0-1.313-.771-2.05-2.128-2.05H20.21v4.1h.027zm5.932 2.761c0-1.312.984-2.132 2.74-2.242l2.021-.11v-.573c0-.848-.558-1.34-1.463-1.34-.878 0-1.41.437-1.543 1.094h-1.436c.08-1.368 1.224-2.38 3.032-2.38 1.783 0 2.926.958 2.926 2.489v5.195H31.01v-1.23h-.027c-.425.847-1.356 1.367-2.314 1.367-1.49 0-2.5-.93-2.5-2.27zm4.761-.683v-.602l-1.809.11c-.904.054-1.41.465-1.41 1.12 0 .657.532 1.095 1.33 1.095 1.065 0 1.89-.739 1.89-1.723zm2.846 5.605v-1.258c.107.028.373.028.48.028.69 0 1.063-.3 1.302-1.067 0-.027.133-.464.133-.464l-2.66-7.547h1.623l1.862 6.152h.027l1.862-6.152H40l-2.74 7.957C36.62 22.426 35.903 23 34.387 23c-.106-.027-.479-.027-.612-.055z"/>
    </g>
    <defs>
        <clipPath id="prefix__clip0">
            <path fill="#fff" d="M0 0H32V14H0z" transform="translate(8 9)"/>
        </clipPath>
    </defs>
</svg>
