<svg xmlns="http://www.w3.org/2000/svg" width="41" height="26" fill="none" viewBox="0 0 41 26">
    <path fill="#F9F9F9" stroke="#979797" stroke-width=".502" d="M.523.251h39.77v24.955H.523V.25z"/>
    <path fill="#F58220" fill-rule="evenodd" d="M40.546 25.45l-.006-10.842C37.859 16.315 27.752 22.2 11.262 25.45h29.284z" clip-rule="evenodd"/>
    <path fill="#231F20" fill-rule="evenodd" d="M32.423 10.54c0-.07-.044-.109-.125-.109h-.106v.352h.078v-.137l.093.137h.098l-.11-.146c.046-.013.072-.049.072-.098zm-.137.047h-.015v-.09h.016c.038 0 .058.014.058.044s-.02.046-.06.046z" clip-rule="evenodd"/>
    <path fill="#231F20" fill-rule="evenodd" d="M32.315 10.3c-.16 0-.289.137-.289.307 0 .17.13.306.289.306.157 0 .285-.138.285-.306 0-.168-.128-.307-.285-.307zm0 .557c-.129 0-.232-.11-.232-.25s.103-.252.231-.252c.126 0 .228.114.228.252s-.102.25-.228.25zM31.907 11.419c0-.747-.484-1.176-1.33-1.176H29.49v3.982h.733v-1.6h.096l1.014 1.6h.902l-1.184-1.678c.553-.119.857-.519.857-1.128zm-1.471.657h-.214v-1.207h.226c.457 0 .705.204.705.591 0 .4-.248.616-.717.616zM26.927 14.225h2.079v-.674h-1.347v-1.076h1.296v-.673h-1.296v-.884h1.347v-.675h-2.08v3.982zM24.785 12.918l-1.003-2.675h-.8l1.595 4.084h.394l1.623-4.084H25.8l-1.015 2.675z" clip-rule="evenodd"/>
    <g filter="url(#prefix__filter0_i)">
        <path fill="#F48027" fill-rule="evenodd" d="M19.124 12.215c0 1.202.858 2.1 2.004 2.1 1.116 0 1.998-.91 1.998-2.077 0-1.159-.876-2.07-1.998-2.07-1.107 0-2.004.917-2.004 2.047z" clip-rule="evenodd"/>
    </g>
    <path fill="#231F20" fill-rule="evenodd" d="M15.943 12.236c0 1.172.869 2.079 1.984 2.079.316 0 .586-.066.92-.233v-.914c-.295.311-.554.436-.886.436-.738 0-1.263-.567-1.263-1.374 0-.763.541-1.367 1.229-1.367.349 0 .614.132.92.448v-.913c-.322-.173-.588-.244-.903-.244-1.11 0-2 .925-2 2.082M14.631 11.77c-.44-.172-.569-.286-.569-.5 0-.251.23-.442.547-.442.22 0 .4.096.591.322l.383-.53c-.316-.294-.693-.443-1.104-.443-.665 0-1.172.49-1.172 1.14 0 .55.236.83.924 1.093.287.107.434.179.507.227.146.102.22.244.22.411 0 .323-.242.562-.57.562-.35 0-.63-.184-.8-.531l-.472.484c.337.525.743.758 1.301.758.76 0 1.296-.538 1.296-1.308 0-.632-.247-.92-1.082-1.243zM12.106 10.243h.733v3.982h-.733v-3.982zM9.751 10.243H8.674v3.982h1.072c.568 0 .98-.144 1.34-.46.428-.377.682-.944.682-1.53 0-1.175-.829-1.992-2.017-1.992zm.857 2.991c-.231.222-.53.317-1.003.317h-.198v-2.633h.198c.473 0 .76.09 1.003.322.254.239.405.609.405.99 0 .383-.151.766-.405 1.004z" clip-rule="evenodd"/>
    <defs>
        <filter id="prefix__filter0_i" width="4.002" height="4.146" x="19.124" y="10.169" color-interpolation-filters="sRGB" filterUnits="userSpaceOnUse">
            <feFlood flood-opacity="0" result="BackgroundImageFix"/>
            <feBlend in="SourceGraphic" in2="BackgroundImageFix" result="shape"/>
            <feColorMatrix in="SourceAlpha" result="hardAlpha" values="0 0 0 0 0 0 0 0 0 0 0 0 0 0 0 0 0 0 127 0"/>
            <feOffset/>
            <feGaussianBlur stdDeviation=".502"/>
            <feComposite in2="hardAlpha" k2="-1" k3="1" operator="arithmetic"/>
            <feColorMatrix values="0 0 0 0 0 0 0 0 0 0 0 0 0 0 0 0 0 0 0.5 0"/>
            <feBlend in2="shape" result="effect1_innerShadow"/>
        </filter>
    </defs>
</svg>
