<svg xmlns="http://www.w3.org/2000/svg" width="42" height="26" fill="none" viewBox="0 0 42 26">
    <path fill="#F9F9F9" stroke="#979797" stroke-width=".502" d="M1.068.251h39.77v24.954H1.068V.252z"/>
    <path fill="#D82332" fill-rule="evenodd" d="M24.606 12.756c0 6.084-4.935 11.015-11.023 11.015S2.56 18.841 2.56 12.756c0-6.083 4.935-11.015 11.023-11.015s11.023 4.932 11.023 11.015" clip-rule="evenodd"/>
    <path fill="#F1AB3E" fill-rule="evenodd" d="M28.492 1.74c-2.849 0-5.444 1.08-7.4 2.852-.399.361-.77.75-1.113 1.166h2.227c.304.37.584.76.84 1.167h-3.908c-.234.374-.446.763-.635 1.166h5.178c.177.378.333.767.467 1.167h-6.112c-.127.38-.234.769-.32 1.166h6.752c.161.752.247 1.532.247 2.332 0 1.223-.199 2.4-.567 3.5h-6.112c.134.4.29.788.467 1.166h5.178c-.19.403-.4.792-.636 1.167h-3.907c.255.406.536.796.84 1.165h2.227c-.342.416-.714.806-1.113 1.167 1.956 1.771 4.551 2.85 7.4 2.85 6.088 0 11.023-4.93 11.023-11.015 0-6.083-4.935-11.015-11.023-11.015" clip-rule="evenodd"/>
    <path fill="#F1AB3E" fill-rule="evenodd" d="M37.923 18.808c0-.196.16-.356.356-.356.197 0 .356.16.356.356 0 .197-.159.356-.356.356-.197 0-.356-.16-.356-.356zm.356.27c.149 0 .27-.12.27-.27 0-.15-.121-.27-.27-.27-.15 0-.271.12-.271.27 0 .15.121.27.27.27zm-.05-.115h-.072v-.312h.132c.028 0 .056 0 .08.015.025.018.04.048.04.079 0 .035-.02.068-.055.08l.058.138h-.08l-.049-.123h-.053v.123zm.002-.177h.04c.015 0 .03.002.044-.006.012-.007.019-.021.019-.036 0-.011-.008-.025-.018-.031-.013-.008-.033-.006-.047-.006h-.038v.08z" clip-rule="evenodd"/>
    <path fill="#FFFFFE" fill-rule="evenodd" d="M37.923 15.327c0-.197.16-.356.355-.356.197 0 .356.159.356.356 0 .196-.159.356-.356.356-.195 0-.355-.16-.355-.356zm.355.27c.15 0 .271-.122.271-.27 0-.15-.12-.271-.27-.271-.15 0-.271.121-.271.27 0 .15.12.27.27.27zm-.048-.116h-.073v-.312h.132c.028 0 .055.002.08.016.026.017.04.047.04.078 0 .036-.021.069-.054.081l.057.137h-.08l-.049-.123h-.053v.123zm0-.176h.04c.015 0 .032.001.045-.006.012-.008.018-.022.018-.036 0-.012-.007-.025-.017-.032-.013-.007-.033-.005-.047-.005h-.039v.079z" clip-rule="evenodd"/>
    <path fill="#0C2D5A" fill-rule="evenodd" d="M36.795 10.27l-.266 1.615c-.326-.43-.678-.742-1.142-.742-.604 0-1.153.458-1.513 1.131-.502-.103-1.02-.28-1.02-.28v.004c.04-.376.057-.605.053-.684h-1.1c-.149 1.407-.415 2.831-.623 4.239l-.055.305h1.198c.161-1.048.285-1.92.376-2.61.409-.37.614-.692 1.027-.671-.183.443-.29.952-.29 1.475 0 1.135.574 1.885 1.445 1.885.438 0 .775-.151 1.103-.502l-.056.423h1.132l.911-5.587h-1.18zm-1.497 4.538c-.407 0-.613-.301-.613-.896 0-.893.386-1.526.928-1.526.412 0 .634.313.634.89 0 .901-.392 1.532-.949 1.532zM29.916 13.937c-.125-.015-.18-.019-.267-.019-.678 0-1.021.232-1.021.691 0 .283.167.463.429.463.487 0 .839-.463.859-1.135zm.87 2.024h-.99l.022-.47c-.303.37-.706.549-1.254.549-.65 0-1.093-.507-1.093-1.242 0-1.107.773-1.751 2.1-1.751.136 0 .31.012.487.035.038-.15.047-.214.047-.296 0-.3-.207-.412-.767-.412-.585-.007-1.067.139-1.267.204l.167-1.022c.596-.175.989-.24 1.432-.24 1.027 0 1.572.46 1.57 1.332.003.233-.036.522-.096.9-.104.658-.327 2.07-.357 2.413zM26.76 11.48c.332 0 .642.087 1.069.302l.196-1.213c-.176-.068-.793-.472-1.316-.472-.8 0-1.478.397-1.954 1.052-.694-.23-.98.235-1.33.698l-.311.072c.023-.152.045-.304.038-.457h-1.1c-.15 1.407-.415 2.831-.624 4.238l-.054.306h1.197c.2-1.298.31-2.128.376-2.69l.45-.25c.069-.251.279-.336.702-.325-.055.296-.085.608-.085.931 0 1.487.803 2.412 2.091 2.412.332 0 .617-.043 1.058-.163l.21-1.273c-.397.194-.722.286-1.017.286-.695 0-1.116-.513-1.116-1.361 0-1.23.626-2.093 1.52-2.093M20.962 15.856c-.408.125-.803.184-1.22.184-1.332-.001-2.026-.697-2.026-2.027 0-1.554.883-2.698 2.081-2.698.982 0 1.608.64 1.608 1.645 0 .333-.044.658-.147 1.117H18.89c-.08.66.342.935 1.034.935.426 0 .81-.088 1.238-.287l-.199 1.13zm-.668-2.695c.006-.095.126-.81-.554-.81-.379 0-.65.288-.76.81h1.314zM17.257 15.955c-.327.103-.583.148-.86.148-.611 0-.945-.352-.945-.998-.009-.202.088-.729.164-1.211.069-.425.519-3.101.519-3.101h1.19l-.14.688h.61l-.162 1.091h-.612c-.138.865-.336 1.94-.338 2.084 0 .235.126.336.41.336.136 0 .242-.013.323-.043l-.159 1.006zM12.594 12.853c0 .575.28.971.912 1.27.484.227.559.294.559.5 0 .284-.213.412-.687.412-.357 0-.69-.056-1.073-.179l-.164 1.049c.272.059.515.113 1.245.134 1.263 0 1.847-.48 1.847-1.518 0-.625-.245-.991-.844-1.266-.502-.23-.56-.282-.56-.494 0-.246.2-.372.586-.372.235 0 .556.026.86.069l.17-1.054c-.31-.049-.78-.089-1.053-.089-1.339 0-1.802.699-1.798 1.538zM11.102 13.937c-.125-.015-.18-.019-.267-.019-.678 0-1.021.232-1.021.691 0 .283.167.463.429.463.487 0 .839-.463.86-1.135zm.87 2.024h-.99l.022-.47c-.302.37-.706.549-1.254.549-.649 0-1.093-.507-1.093-1.242 0-1.107.773-1.751 2.1-1.751.136 0 .31.012.488.035.038-.15.047-.214.047-.296 0-.3-.208-.412-.767-.412-.586-.007-1.068.139-1.267.204l.166-1.022c.596-.175.99-.24 1.432-.24 1.028 0 1.572.46 1.571 1.332.002.233-.037.522-.097.9-.104.658-.327 2.07-.357 2.413zM8.055 16.031H6.86l.685-4.294-1.53 4.294h-.816l-.101-4.27-.72 4.27h-1.12l.935-5.586h1.721l.048 3.458 1.161-3.458h1.859l-.926 5.586z" clip-rule="evenodd"/>
    <path fill="#FFFFFE" fill-rule="evenodd" d="M37.54 15.684h-1.132l.056-.423c-.328.35-.664.501-1.103.501-.87 0-1.445-.748-1.445-1.885 0-1.512.892-2.786 1.947-2.786.464 0 .816.19 1.143.62l.266-1.614h1.18l-.912 5.587zm-1.765-1.05c.557 0 .949-.631.949-1.531 0-.578-.223-.891-.635-.891-.542 0-.928.633-.928 1.526 0 .595.207.896.614.896zM32.156 11.016c-.15 1.406-.416 2.83-.624 4.238l-.055.305h1.198c.428-2.778.53-3.32 1.202-3.253.107-.569.306-1.067.454-1.318-.5-.104-.78.179-1.148.717.03-.233.083-.459.073-.69h-1.1M30.264 13.588c-.125-.014-.18-.018-.266-.018-.678 0-1.022.232-1.022.691 0 .283.168.463.43.463.486 0 .838-.463.858-1.136zm.871 2.025h-.991l.022-.471c-.302.372-.706.55-1.253.55-.65 0-1.094-.507-1.094-1.242 0-1.107.773-1.751 2.101-1.751.136 0 .31.012.487.035.037-.15.047-.214.047-.296 0-.3-.208-.412-.767-.412-.585-.007-1.068.139-1.267.204l.166-1.022c.597-.175.99-.241 1.432-.241 1.028 0 1.572.461 1.571 1.333.003.233-.036.522-.096.9-.104.657-.327 2.07-.358 2.413zM28.346 10.213l-.196 1.212c-.428-.215-.737-.301-1.07-.301-.893 0-1.52.862-1.52 2.093 0 .848.422 1.36 1.117 1.36.295 0 .62-.09 1.017-.286l-.21 1.273c-.441.12-.726.164-1.058.164-1.288 0-2.091-.926-2.091-2.412 0-1.998 1.11-3.394 2.695-3.394.523 0 1.14.222 1.316.29zM22.4 11.016c-.15 1.406-.416 2.83-.624 4.238l-.054.305h1.197c.428-2.778.531-3.32 1.202-3.253.107-.569.307-1.067.455-1.318-.501-.104-.782.179-1.148.717.03-.233.082-.459.072-.69h-1.1M21.31 15.508c-.409.125-.803.184-1.22.183-1.333 0-2.026-.696-2.026-2.027 0-1.553.882-2.697 2.08-2.697.982 0 1.608.64 1.608 1.645 0 .333-.043.658-.146 1.117h-2.369c-.08.66.342.935 1.034.935.425 0 .81-.088 1.237-.287l-.198 1.13zm-.668-2.695c.006-.095.126-.811-.554-.811-.379 0-.65.289-.76.81h1.314zM17.605 15.607c-.328.103-.583.148-.86.148-.611 0-.946-.352-.946-.998-.008-.202.089-.729.165-1.211.069-.425.519-3.101.519-3.101h1.189l-.139.687h.61l-.162 1.092h-.613c-.138.865-.335 1.94-.337 2.083 0 .236.125.337.41.337.136 0 .242-.013.323-.043l-.16 1.006M12.942 12.505c0 .575.28.97.912 1.269.484.228.56.295.56.502 0 .283-.214.41-.688.41-.357 0-.69-.055-1.073-.178l-.164 1.048c.272.06.515.114 1.245.135 1.263 0 1.847-.48 1.847-1.519 0-.624-.245-.99-.844-1.265-.502-.231-.56-.282-.56-.494 0-.246.2-.372.586-.372.235 0 .556.026.86.069l.17-1.054c-.31-.049-.779-.09-1.053-.09-1.339 0-1.802.7-1.798 1.539M11.451 13.588c-.125-.014-.18-.018-.267-.018-.678 0-1.022.232-1.022.691 0 .283.168.463.43.463.487 0 .838-.463.86-1.136zm.87 2.025h-.99l.022-.471c-.303.372-.706.55-1.255.55-.648 0-1.093-.507-1.093-1.242 0-1.107.774-1.751 2.101-1.751.136 0 .31.012.488.035.037-.15.047-.214.047-.296 0-.3-.209-.412-.768-.412-.585-.007-1.068.139-1.266.204l.166-1.022c.596-.175.99-.241 1.432-.241 1.027 0 1.572.461 1.57 1.333.003.233-.036.522-.096.9-.104.657-.327 2.07-.357 2.413zM8.404 15.683H7.207l.686-4.294-1.53 4.294h-.817l-.1-4.27-.72 4.27H3.604l.936-5.586h1.72l.048 3.458 1.162-3.458h1.858l-.925 5.586z" clip-rule="evenodd"/>
</svg>
