<svg xmlns="http://www.w3.org/2000/svg" width="48" height="33" fill="none" viewBox="0 0 48 33">
    <path fill="#F9F9F9" stroke="#979797" stroke-width=".502" d="M.251.251H47.75V32.75H.25V.25z"/>
    <path fill="#2890C3" fill-rule="evenodd" d="M41.199 14.492l-.79 5.011c-.016.097.06.185.158.185h.795c.131 0 .243-.096.264-.225l.78-4.921c.014-.097-.06-.185-.16-.185h-.889c-.079 0-.146.057-.158.135zM38.827 17.92c-.089.526-.507.878-1.04.878-.268 0-.482-.085-.62-.248-.136-.16-.188-.39-.144-.645.083-.52.508-.884 1.033-.884.262 0 .474.086.615.25.141.165.197.396.156.65zm1.285-1.788h-.922c-.079 0-.146.057-.158.135l-.041.257-.065-.093c-.2-.289-.644-.386-1.089-.386-1.018 0-1.889.77-2.058 1.849-.088.538.037 1.053.343 1.412.282.33.683.467 1.162.467.82 0 1.276-.526 1.276-.526l-.041.256c-.015.097.06.184.159.184h.83c.132 0 .244-.095.264-.224l.499-3.146c.015-.097-.06-.185-.159-.185zM34.579 16.154c-.106.689-.633.689-1.144.689h-.29l.203-1.286c.012-.078.08-.135.159-.135h.133c.347 0 .676 0 .845.197.101.118.132.293.094.535zm-.223-1.797h-1.925c-.132 0-.244.095-.265.225l-.778 4.92c-.016.098.06.186.158.186h.988c.092 0 .17-.067.185-.158l.221-1.395c.02-.13.133-.225.264-.225h.61c1.268 0 2-.612 2.191-1.824.087-.53.004-.947-.245-1.239-.274-.32-.76-.49-1.404-.49z" clip-rule="evenodd"/>
    <path fill="#28346A" fill-rule="evenodd" d="M30.293 16.132h-.927c-.088 0-.171.044-.221.117l-1.279 1.877-.541-1.804c-.034-.113-.139-.19-.257-.19h-.91c-.11 0-.188.108-.153.211l1.02 2.986-.96 1.35c-.074.106.002.252.132.252h.926c.087 0 .17-.043.22-.114l3.082-4.434c.074-.106-.002-.251-.132-.251zM24.097 17.92c-.09.526-.508.878-1.041.878-.267 0-.482-.085-.62-.248-.136-.16-.187-.39-.144-.645.083-.52.508-.884 1.034-.884.261 0 .474.086.614.25.142.165.197.396.157.65zm1.285-1.788h-.922c-.08 0-.147.057-.159.135l-.04.257-.065-.093c-.2-.289-.645-.386-1.09-.386-1.018 0-1.888.77-2.057 1.849-.088.538.037 1.053.343 1.412.281.33.683.467 1.161.467.822 0 1.277-.526 1.277-.526l-.041.256c-.016.097.06.184.158.184h.83c.132 0 .244-.095.265-.224l.498-3.146c.016-.097-.06-.185-.158-.185zM19.849 16.154c-.106.689-.634.689-1.144.689h-.29l.203-1.286c.012-.078.08-.135.159-.135h.133c.348 0 .676 0 .845.197.101.118.132.293.094.535zm-.223-1.797h-1.925c-.132 0-.244.095-.265.225l-.778 4.92c-.016.098.06.186.158.186h.92c.131 0 .243-.096.264-.225l.21-1.328c.02-.13.133-.225.264-.225h.61c1.268 0 2-.612 2.191-1.824.087-.53.004-.947-.245-1.239-.274-.32-.76-.49-1.404-.49zM12.508 12.677c-.416-.474-1.169-.677-2.131-.677H7.584c-.197 0-.365.143-.395.337l-1.164 7.371c-.023.146.09.277.237.277h1.725l.433-2.745-.013.086c.03-.194.196-.337.393-.337h.82c1.61 0 2.87-.653 3.238-2.544.011-.055.02-.11.029-.163-.047-.025-.047-.025 0 0 .11-.699-.001-1.174-.38-1.605" clip-rule="evenodd"/>
    <path fill="#2890C3" fill-rule="evenodd" d="M12.88 14.259c-.009.053-.018.107-.029.163-.368 1.882-1.626 2.533-3.234 2.533H8.8c-.197 0-.363.143-.393.336l-.538 3.399c-.02.127.078.241.207.241h1.451c.172 0 .318-.124.345-.293l.014-.074.274-1.728.018-.096c.026-.169.173-.293.344-.293h.218c1.406 0 2.507-.57 2.829-2.216.134-.688.065-1.263-.29-1.666-.109-.123-.242-.224-.398-.306z" clip-rule="evenodd"/>
    <path fill="#1F274F" fill-rule="evenodd" d="M12.495 14.106c-.056-.016-.114-.03-.174-.044-.06-.013-.121-.025-.184-.035-.221-.036-.462-.052-.722-.052H9.23c-.054 0-.105.012-.15.034-.102.048-.177.143-.195.26l-.465 2.936-.013.086c.03-.193.196-.336.393-.336h.818c1.608 0 2.866-.65 3.234-2.533.011-.056.02-.11.029-.163-.093-.049-.194-.091-.303-.127l-.082-.026z" clip-rule="evenodd"/>
</svg>
