<svg xmlns="http://www.w3.org/2000/svg" width="41" height="26" fill="none" viewBox="0 0 41 26">
    <path fill="#F9F9F9" stroke="#979797" stroke-width=".502" d="M.797.251h39.77v24.955H.797V.25z"/>
    <path fill="#0161AB" fill-rule="evenodd" d="M33.466 16.162c0-.236.192-.427.427-.427.237 0 .428.191.428.427s-.191.427-.428.427c-.235 0-.427-.191-.427-.427zm.427.324c.18 0 .325-.145.325-.324 0-.18-.145-.325-.325-.325-.179 0-.324.145-.324.325 0 .179.145.324.324.324zm-.057-.136h-.087v-.375h.158c.033 0 .067 0 .096.018.03.022.047.057.047.094 0 .043-.024.083-.064.097l.068.166h-.097L33.9 16.2h-.064v.149zm0-.213h.048c.018 0 .037.001.053-.007.015-.01.022-.027.022-.044 0-.014-.009-.03-.021-.037-.015-.01-.04-.008-.056-.008h-.046v.096z" clip-rule="evenodd"/>
    <path fill="#0066B2" fill-rule="evenodd" d="M31.358 16.616h1.896L31.6 8.738h-1.66c-.766 0-.953.586-.953.586l-3.079 7.292h2.152l.43-1.17h2.625l.242 1.17zm-2.272-2.787l1.085-2.949.61 2.95h-1.695zM26.07 10.632l.295-1.692s-.909-.343-1.856-.343c-1.025 0-3.458.445-3.458 2.608 0 2.036 2.856 2.061 2.856 3.13 0 1.068-2.562.877-3.407.203l-.307 1.769s.921.445 2.33.445 3.535-.725 3.535-2.697c0-2.049-2.881-2.24-2.881-3.13 0-.891 2.01-.777 2.894-.293zM18.92 16.616h-2.064l1.29-7.878h2.065l-1.29 7.878zM13.15 14.156l1.969-5.419h2.222l-3.285 7.878h-2.15l-1.794-6.844c-1.165-.695-2.16-.9-2.16-.9s1.564.321 3.064 1.527m2.135 3.758l-.233-1.167.233 1.167zm-.233-1.167z" clip-rule="evenodd"/>
    <path fill="#F9A533" fill-rule="evenodd" d="M12.918 12.99l-.695-3.544s-.084-.709-.98-.709H7.99l-.038.133s1.564.322 3.064 1.529c1.435 1.153 1.902 2.59 1.902 2.59z" clip-rule="evenodd"/>
</svg>
