<?xml version="1.0" standalone="no"?> <!DOCTYPE svg PUBLIC "-//W3C//DTD SVG 1.0//EN" "http://www.w3.org/TR/2001/REC-SVG-20010904/DTD/svg10.dtd" > <svg xmlns="http://www.w3.org/2000/svg" width="100%" height="100%">
<defs >
<font id="helveticaneuecondensedbold" horiz-adv-x="400" ><font-face
    font-family="Helvetica Neue"
    units-per-em="1000"
    panose-1="2 0 8 6 0 0 0 2 0 4"
    ascent="961"
    descent="-221"
    alphabetic="0" />
<missing-glyph horiz-adv-x="500" d="M442 8H58V504H442V8ZM50 512V0H450V512H50Z" />
<glyph unicode=" " glyph-name="space" horiz-adv-x="240" />
<glyph unicode="!" glyph-name="exclam" horiz-adv-x="296" d="M217 132H79V0H217V132ZM98 199H198L217 482V714H79V482L98 199Z" />
<glyph unicode="&quot;" glyph-name="quotedbl" horiz-adv-x="463" d="M72 714V393H196V714H72ZM267 714V393H391V714H267Z" />
<glyph unicode="#" glyph-name="numbersign" horiz-adv-x="480" d="M184 286L199 408H297L281 286H184ZM0 286V174H74L52 0H149L170 174H268L246 0H343L365 174H451V286H378L394 408H480V520H407L429 694H332L310 520H213L234 694H138L116 520H30V408H103L87 286H0Z" />
<glyph unicode="$" glyph-name="dollar" horiz-adv-x="480" d="M205 -11V-98H269V-11Q368 -4 419 44T471 200Q471 242 462 271T437 320T399 355T348 381L269 413V602Q295 594 305 569T316 505H454V519Q454 552 446 584T417 642T361 685T269 708V777H205V708Q115
698 67 648T18 504Q18 435 50 387T155 312L205 294V92Q185 97 174 108T156 136T149 171T147 212H9V191Q9 152 16 117T45 55T104 11T205 -11ZM205 602V442Q156 470 156 526Q156 588 205 602ZM269 92V269Q298 254 312 232T327 172Q327 144 314 122T269 92Z" />
<glyph unicode="%" glyph-name="percent" horiz-adv-x="778" d="M546 725L140 -28H229L635 725H546ZM133 521Q133 575 140 603T177 632Q207 632 214 604T221 521Q221 461 214 432T177 402Q147 402 140 431T133 521ZM27 517Q27 469 33 433T55 373T101 338T177 326Q224
326 253 337T298 373T321 433T327 517Q327 565 321 601T299 661T253 696T177 708Q131 708 102 697T56 661T33 601T27 517ZM451 177Q451 128 457 93T479 34T525 0T601 -11Q648 -11 677 -1T722 33T745 92T751 177Q751 225 745 261T723 321T677 356T601 368Q555 368
526 357T480 321T457 261T451 177ZM557 181Q557 235 564 263T601 292Q631 292 638 264T645 181Q645 121 638 92T601 62Q571 62 564 91T557 181Z" />
<glyph unicode="&amp;" glyph-name="ampersand" horiz-adv-x="593" d="M426 235L319 380Q382 425 412 468T443 565Q443 596 433 623T400 670T345 702T265 714Q225 714 192 704T134 674T97 627T83 564Q83 549 85 535T92 506T106 474T131 435L156 398Q89 356 51
306T12 192Q12 162 21 126T54 59T121 9T231 -11Q285 -11 330 6T403 55L443 0H596L502 132Q534 178 554 231T575 343H451Q451 320 444 289T426 235ZM223 313L343 143Q307 98 250 98Q226 98 207 106T176 128T157 159T150 192Q150 225 165 253T223 313ZM201 568Q201
596 218 611T262 626Q290 626 307 611T325 566Q325 547 315 528T280 488L254 466L237 490Q201 538 201 568Z" />
<glyph unicode="&apos;" glyph-name="quotesingle" horiz-adv-x="260" d="M68 714V393H192V714H68Z" />
<glyph unicode="(" glyph-name="parenleft" horiz-adv-x="296" d="M296 714H190Q115 596 83 484T50 265Q50 159 82 48T190 -181H296Q265 -124 243 -71T208 35T188 144T182 265Q182 329 188 385T207 496T243 603T296 714Z" />
<glyph unicode=")" glyph-name="parenright" horiz-adv-x="296" d="M106 714H0Q31 657 53 604T88 496T108 386T114 265Q114 201 108 145T89 36T53 -70T0 -181H106Q181 -63 213 48T246 265Q246 371 214 483T106 714Z" />
<glyph unicode="*" glyph-name="asterisk" horiz-adv-x="390" d="M236 714H154V586L32 626L7 548L129 508L53 404L120 356L195 460L270 356L337 404L261 508L383 548L358 626L236 586V714Z" />
<glyph unicode="+" glyph-name="plus" horiz-adv-x="600" d="M238 191V0H362V191H553V315H362V506H238V315H47V191H238Z" />
<glyph unicode="," glyph-name="comma" horiz-adv-x="240" d="M186 156H54V0H106V-13Q106 -41 93 -64T54 -92V-162Q94 -158 119 -143T160 -103T180 -45T186 26V156Z" />
<glyph unicode="-" glyph-name="hyphen" horiz-adv-x="370" d="M326 348H44V230H326V348Z" />
<glyph unicode="." glyph-name="period" horiz-adv-x="240" d="M186 156H54V0H186V156Z" />
<glyph unicode="/" glyph-name="slash" horiz-adv-x="332" d="M223 728L0 -11H109L335 728H223Z" />
<glyph unicode="0" glyph-name="zero" horiz-adv-x="480" d="M18 330Q18 236 28 171T64 64T133 6T240 -11Q319 -11 363 19T430 101T457 222T462 364Q462 458 452 523T416 630T348 689T240 708Q161 708 117 677T50 593T23 472T18 330ZM162 299V376Q162 444 165
490T177 563T201 602T240 614Q263 614 278 605T302 572T314 505T318 395V318Q318 250 315 204T303 131T279 92T240 80Q217 80 202 89T178 122T166 189T162 299Z" />
<glyph unicode="1" glyph-name="one" horiz-adv-x="480" d="M182 0H326V708H220Q209 648 168 621T54 594H41V500H182V0Z" />
<glyph unicode="2" glyph-name="two" horiz-adv-x="480" d="M454 0V112H187Q192 132 210 159T260 216L340 290Q370 317 391 342T425 395T444 451T450 515Q450 608 398 658T238 708Q124 708 71 655T18 503V476H156Q156 504 158 529T169 573T193 603T236 614Q306
614 306 526Q306 499 304 478T293 439T271 403T232 364L174 310Q135 274 106 239T57 166T28 88T18 0H454Z" />
<glyph unicode="3" glyph-name="three" horiz-adv-x="480" d="M158 207H20V204Q20 101 71 45T225 -11Q299 -11 344 8T416 58T451 127T460 201Q460 268 432 312T334 368V370Q385 381 413 421T442 526Q442 620 389 664T238 708Q136 708 83 657T30 499H162Q162 524
164 545T175 581T197 605T235 614Q270 614 287 593T304 521Q304 499 300 479T286 444T261 419T222 409H175V315H223Q253 315 271 305T299 278T312 240T316 194Q316 171 314 150T303 114T279 89T237 80Q190 80 175 112T158 207Z" />
<glyph unicode="4" glyph-name="four" horiz-adv-x="480" d="M14 265V147H266V0H398V147H466V259H398V708H249L14 265ZM266 528V259H126L264 528H266Z" />
<glyph unicode="5" glyph-name="five" horiz-adv-x="480" d="M425 582V694H56L30 309H159Q163 339 179 356T227 374Q251 374 267 367T292 343T306 297T310 224Q310 155 291 121T226 86Q203 86 189 97T168 126T158 164T156 202H18V183Q18 153 25 119T55 55T118
7T227 -11Q295 -11 339 6T408 58T444 141T454 248Q454 290 446 330T419 403T366 454T281 474Q235 474 203 462T151 421H149L164 582H425Z" />
<glyph unicode="6" glyph-name="six" horiz-adv-x="480" d="M165 220Q165 292 183 323T244 354Q286 354 304 323T322 220Q322 190 320 165T309 120T286 91T244 80Q219 80 204 90T180 119T168 164T165 220ZM311 528H449Q448 579 432 613T388 669T326 699T252 708Q164
708 116 675T46 588T19 463T14 317Q14 252 21 192T51 87T119 15T237 -11Q357 -11 411 52T466 239Q466 287 457 327T427 397T373 443T293 460Q245 460 212 444T160 399H158V434Q158 473 161 506T173 563T200 600T246 614Q282 614 296 592T311 528Z" />
<glyph unicode="7" glyph-name="seven" horiz-adv-x="480" d="M458 694H22V570H320Q268 499 230 425T166 278T123 135T99 0H250Q259 75 276 152T319 305T379 451T458 584V694Z" />
<glyph unicode="8" glyph-name="eight" horiz-adv-x="480" d="M158 202Q158 228 161 250T174 288T200 314T240 324Q264 324 280 315T305 289T318 250T322 202Q322 177 319 155T306 116T280 90T240 80Q216 80 200 89T175 115T162 154T158 202ZM170 517Q170 614
240 614Q310 614 310 517Q310 466 291 442T240 418Q208 418 189 442T170 517ZM14 200Q14 169 21 132T53 63T121 10T240 -11Q314 -11 358 10T427 63T458 132T466 200Q466 267 436 315T346 375V377Q374 384 393 399T425 433T442 473T448 513Q448 617 393 662T240
708Q143 708 88 663T32 513Q32 494 37 473T54 433T85 399T134 377V375Q74 363 44 315T14 200Z" />
<glyph unicode="9" glyph-name="nine" horiz-adv-x="480" d="M158 474Q158 504 160 529T171 574T194 603T236 614Q261 614 276 604T300 575T312 530T315 474Q315 402 297 371T236 340Q194 340 176 371T158 474ZM169 165H31Q32 114 48 80T92 25T154 -3T228 -11Q315
-11 363 20T434 106T461 230T466 377Q466 442 459 502T429 607T361 680T243 708Q123 708 69 643T14 455Q14 407 23 367T53 297T107 251T187 234Q235 234 268 250T320 294H322V260Q322 221 319 188T307 131T280 94T234 80Q198 80 184 102T169 165Z" />
<glyph unicode=":" glyph-name="colon" horiz-adv-x="240" d="M54 521V365H186V521H54ZM54 156V0H186V156H54Z" />
<glyph unicode=";" glyph-name="semicolon" horiz-adv-x="240" d="M186 521H54V365H186V521ZM186 156H54V0H106V-13Q106 -41 93 -64T54 -92V-162Q94 -158 119 -143T160 -103T180 -45T186 26V156Z" />
<glyph unicode="&lt;" glyph-name="less" horiz-adv-x="600" d="M47 306V200L553 -5V116L215 253L553 390V514L47 306Z" />
<glyph unicode="=" glyph-name="equal" horiz-adv-x="600" d="M47 206V82H553V206H47ZM47 424V300H553V424H47Z" />
<glyph unicode="&gt;" glyph-name="greater" horiz-adv-x="600" d="M47 116V-5L553 200V306L47 514V390L385 253L47 116Z" />
<glyph unicode="?" glyph-name="question" horiz-adv-x="481" d="M300 132H162V0H300V132ZM36 493H168V518Q168 567 184 597T239 628Q273 628 290 605T307 543Q307 513 299 487T269 437L231 394Q197 356 183 322T169 237V198H293V213Q293 251 304 275T342 328L382
373Q418 415 431 451T445 529Q445 617 393 669T234 722Q185 722 148 707T86 664T49 599T36 516V493Z" />
<glyph unicode="@" glyph-name="at" horiz-adv-x="800" d="M535 541L522 488Q500 523 470 539T401 555Q352 555 313 534T245 478T202 399T187 309Q187 269 200 238T233 184T280 151T333 139Q373 139 403 155T453 192H455Q460 139 520 139Q536 139 561 145T614
166T670 202T720 257T757 330T771 425Q771 494 741 549T661 645T543 706T400 728Q323 728 256 699T138 620T58 502T29 357Q29 280 58 213T137 95T255 17T400 -11Q514 -11 595 29T730 144H641Q599 119 546 100T424 80Q367 80 316 101T226 160T164 248T141 356Q141
410 162 460T220 549T307 611T417 634Q469 634 517 617T602 569T661 496T683 404Q683 365 672 333T646 278T612 243T579 230Q559 230 559 250Q559 263 565 291L623 541H535ZM299 326Q299 347 307 368T331 408T366 437T411 449Q442 449 464 427T486 373Q486 351
478 328T454 287T417 257T370 245Q338 245 319 269T299 326Z" />
<glyph unicode="A" glyph-name="A" horiz-adv-x="556" d="M348 269L279 590H277L208 269H348ZM367 714L556 0H406L373 151H183L150 0H0L189 714H367Z" />
<glyph unicode="B" glyph-name="B" horiz-adv-x="556" d="M194 106V321H256Q280 321 300 316T334 299T357 266T366 214Q366 152 334 129T250 106H194ZM194 421V608H246Q300 608 325 587T350 515Q350 464 323 443T235 421H194ZM50 714V0H293Q356 0 398 17T467 62T505
129T516 209Q516 281 481 324T386 375V377Q440 392 467 433T494 533Q494 584 479 619T437 675T373 705T291 714H50Z" />
<glyph unicode="C" glyph-name="C" horiz-adv-x="537" d="M355 473H499Q499 512 494 556T466 639T400 703T278 728Q197 728 149 701T76 624T43 507T35 357Q35 275 42 207T75 90T149 15T278 -11Q349 -11 393 11T462 72T496 163T505 273H361Q361 215 354 180T335
125T307 99T271 92Q248 92 231 101T202 138T185 216T179 347Q179 423 183 475T197 560T224 607T269 622Q318 622 336 587T355 473Z" />
<glyph unicode="D" glyph-name="D" horiz-adv-x="574" d="M201 106V608H262Q303 608 327 593T364 547T381 470T385 363Q385 290 381 241T363 162T326 119T265 106H201ZM57 714V0H284Q356 0 403 22T478 89T517 203T529 367Q529 446 520 510T486 619T414 689T293 714H57Z" />
<glyph unicode="E" glyph-name="E" horiz-adv-x="481" d="M449 714H50V0H459V118H194V310H434V428H194V596H449V714Z" />
<glyph unicode="F" glyph-name="F" horiz-adv-x="463" d="M50 714V0H194V310H434V428H194V596H449V714H50Z" />
<glyph unicode="G" glyph-name="G" horiz-adv-x="556" d="M367 502H505Q505 611 453 669T283 728Q214 728 168 705T94 637T55 523T43 365Q43 272 51 202T82 83T147 12T255 -11Q306 -11 342 6T405 66H407V0H513V385H280V279H375V206Q375 177 366 156T344 120T315
99T286 92Q255 92 236 111T206 167T191 256T187 372Q187 506 210 564T285 622Q307 622 322 611T348 582T362 543T367 502Z" />
<glyph unicode="H" glyph-name="H" horiz-adv-x="556" d="M50 714V0H194V317H362V0H506V714H362V441H194V714H50Z" />
<glyph unicode="I" glyph-name="I" horiz-adv-x="258" d="M57 0H201V714H57V0Z" />
<glyph unicode="J" glyph-name="J" horiz-adv-x="463" d="M419 714H275V204Q275 147 263 120T211 92Q172 92 160 119T147 204V226H15V195Q15 153 23 115T52 49T110 5T204 -11Q313 -11 366 37T419 200V714Z" />
<glyph unicode="K" glyph-name="K" horiz-adv-x="537" d="M194 714H50V0H194V212L247 293L394 0H556L340 408L534 714H378L196 428H194V714Z" />
<glyph unicode="L" glyph-name="L" horiz-adv-x="463" d="M50 0H449V118H194V714H50V0Z" />
<glyph unicode="M" glyph-name="M" horiz-adv-x="740" d="M53 714V0H185V570H187L314 0H426L553 570H555V0H687V714H474L371 210H369L267 714H53Z" />
<glyph unicode="N" glyph-name="N" horiz-adv-x="574" d="M216 714H50V0H182V500H184L360 0H524V714H392V225H390L216 714Z" />
<glyph unicode="O" glyph-name="O" horiz-adv-x="556" d="M179 357Q179 429 182 479T196 561T226 607T278 622Q310 622 329 608T359 561T373 479T377 357Q377 285 374 235T360 153T330 107T278 92Q246 92 227 106T197 152T183 234T179 357ZM35 357Q35 275 42 207T75
90T149 15T278 -11Q359 -11 407 15T480 90T513 207T521 357Q521 438 514 506T481 624T407 700T278 728Q197 728 149 701T76 624T43 507T35 357Z" />
<glyph unicode="P" glyph-name="P" horiz-adv-x="519" d="M194 391V608H254Q308 608 331 580T354 498Q354 443 328 417T258 391H194ZM50 714V0H194V285H271Q322 285 364 298T435 337T481 404T498 500Q498 540 488 578T455 647T395 695T302 714H50Z" />
<glyph unicode="Q" glyph-name="Q" horiz-adv-x="556" d="M179 357Q179 429 182 479T196 561T226 607T278 622Q310 622 329 608T359 561T373 479T377 357Q377 285 374 235T360 153T330 107T278 92Q246 92 227 106T197 152T183 234T179 357ZM458 -85L543 -8L466
67Q501 118 511 192T521 357Q521 438 514 506T481 624T407 700T278 728Q197 728 149 701T76 624T43 507T35 357Q35 275 42 207T75 90T149 15T278 -11Q333 -11 373 0L458 -85Z" />
<glyph unicode="R" glyph-name="R" horiz-adv-x="556" d="M50 714V0H194V302H271Q316 302 335 278T356 212L360 75Q361 54 364 35T378 0H534V6Q514 17 508 47Q504 77 502 134Q501 163 500 186T497 230Q491 290 466 317T387 352V354Q448 367 477 412T506 530Q506
623 456 668T316 714H50ZM194 402V608H262Q362 608 362 509Q362 451 334 427T254 402H194Z" />
<glyph unicode="S" glyph-name="S" horiz-adv-x="519" d="M166 223H22V194Q22 95 74 42T249 -11Q366 -11 431 40T497 205Q497 238 491 265T470 314T428 356T361 394L250 442Q204 461 190 483T176 539Q176 555 179 570T192 596T218 615T258 622Q300 622 318 595T336
516H474V536Q474 587 458 623T412 683T342 717T253 728Q150 728 91 676T32 518Q32 474 43 441T77 382T136 337T219 302Q255 290 279 279T319 253T340 222T347 180Q347 135 321 114T261 92Q233 92 215 100T185 122T170 156T166 202V223Z" />
<glyph unicode="T" glyph-name="T" horiz-adv-x="480" d="M468 714H12V596H168V0H312V596H468V714Z" />
<glyph unicode="U" glyph-name="U" horiz-adv-x="538" d="M185 714H41V216Q41 144 60 99T111 30T184 -3T269 -11Q313 -11 354 -2T427 33T478 103T497 216V714H353V216Q353 189 350 167T337 128T311 102T269 92Q244 92 228 101T202 127T189 166T185 216V714Z" />
<glyph unicode="V" glyph-name="V" horiz-adv-x="519" d="M157 714H3L167 0H352L516 714H367L261 186H258L157 714Z" />
<glyph unicode="W" glyph-name="W" horiz-adv-x="760" d="M8 714L138 0H299L379 518H381L461 0H622L752 714H614L535 186H533L449 714H311L227 186H225L146 714H8Z" />
<glyph unicode="X" glyph-name="X" horiz-adv-x="537" d="M20 714L184 361L6 0H164L266 242L369 0H531L353 361L519 714H362L271 483L179 714H20Z" />
<glyph unicode="Y" glyph-name="Y" horiz-adv-x="520" d="M165 714H3L188 281V0H332V281L517 714H361L261 438H259L165 714Z" />
<glyph unicode="Z" glyph-name="Z" horiz-adv-x="481" d="M24 105V0H457V118H186L453 605V714H42V596H287L24 105Z" />
<glyph unicode="[" glyph-name="bracketleft" horiz-adv-x="315" d="M80 714V-181H309V-81H204V614H309V714H80Z" />
<glyph unicode="\" glyph-name="backslash" horiz-adv-x="332" d="M0 728L223 -11H335L109 728H0Z" />
<glyph unicode="]" glyph-name="bracketright" horiz-adv-x="315" d="M6 -81V-181H235V714H6V614H111V-81H6Z" />
<glyph unicode="^" glyph-name="asciicircum" horiz-adv-x="600" d="M56 309H180L300 556L420 309H544L356 694H244L56 309Z" />
<glyph unicode="_" glyph-name="underscore" horiz-adv-x="500" d="M0 -122H500V-72H0V-122Z" />
<glyph unicode="`" glyph-name="grave" horiz-adv-x="222" d="M82 601H176L122 745H-13L82 601Z" />
<glyph unicode="a" glyph-name="a" horiz-adv-x="481" d="M297 269V163Q297 141 289 125T269 99T241 85T212 80Q184 80 172 102T160 155Q160 191 178 212T238 242Q251 245 267 251T297 269ZM45 373H169V388Q169 420 185 439T233 458Q268 458 282 441T297 392Q297
365 285 351T242 329L164 308Q128 298 103 285T61 253T36 206T28 140Q28 113 35 86T57 36T97 2T158 -11Q208 -11 239 1T295 56H297Q300 42 303 28T314 0H446Q436 24 433 45T429 104V387Q429 423 422 453T393 506T334 540T234 552Q195 552 161 544T101 516T60 465T45
386V373Z" />
<glyph unicode="b" glyph-name="b" horiz-adv-x="500" d="M46 714V0H178V57H180Q203 19 231 4T302 -11Q387 -11 427 54T467 269Q467 419 427 485T302 552Q263 552 236 536T186 488H184V714H46ZM184 269Q184 357 197 401T257 446Q302 446 315 402T329 269Q329 181
316 137T257 92Q211 92 198 136T184 269Z" />
<glyph unicode="c" glyph-name="c" horiz-adv-x="463" d="M305 344H437Q437 440 389 496T244 552Q196 552 156 539T87 494T42 407T26 269Q26 188 39 134T77 47T141 2T232 -11Q342 -11 389 44T437 206H305Q305 140 289 110T238 80Q215 80 201 90T178 124T167 182T164
268Q164 315 167 349T178 406T202 440T243 452Q263 452 275 443T293 418T302 383T305 344Z" />
<glyph unicode="d" glyph-name="d" horiz-adv-x="500" d="M322 57V0H454V714H316V488H314Q292 520 265 536T198 552Q113 552 73 486T33 269Q33 119 73 54T198 -11Q240 -11 268 4T320 57H322ZM171 269Q171 357 184 401T243 446Q289 446 302 402T316 269Q316 181
303 137T243 92Q198 92 185 136T171 269Z" />
<glyph unicode="e" glyph-name="e" horiz-adv-x="463" d="M305 330H164V351Q164 370 167 389T179 423T200 448T235 458Q256 458 269 450T290 425T301 385T305 330ZM164 248H437V279Q437 341 429 391T399 477T339 532T240 552Q170 552 128 529T64 467T34 378T26
274Q26 223 30 172T55 80T117 14T234 -11Q333 -11 379 38T429 181H305Q299 130 283 105T232 80Q213 80 200 90T179 118T168 158T164 205V248Z" />
<glyph unicode="f" glyph-name="f" horiz-adv-x="296" d="M76 444V0H214V444H294V538H214V585Q214 608 226 618T267 628H280Q289 628 294 627V725Q257 728 220 728Q187 728 160 722T115 700T86 660T76 599V538H6V444H76Z" />
<glyph unicode="g" glyph-name="g" horiz-adv-x="500" d="M173 252Q173 306 175 343T186 403T208 436T245 446Q286 446 301 405T317 266Q317 232 314 204T302 155T279 124T242 112Q220 112 207 123T186 154T176 199T173 252ZM449 538H317V478H315Q295 520 264
536T204 552Q148 552 115 527T64 463T41 374T35 278Q35 131 76 69T200 6Q233 6 263 24T315 72H317V1Q317 -39 300 -66T241 -93Q228 -93 217 -89T195 -78Q174 -63 174 -37H42Q42 -106 89 -143T225 -181Q346 -181 397 -129T449 27V538Z" />
<glyph unicode="h" glyph-name="h" horiz-adv-x="500" d="M46 714V0H184V357Q184 446 257 446Q288 446 302 430T316 371V0H454V399Q454 480 419 516T317 552Q226 552 186 483H184V714H46Z" />
<glyph unicode="i" glyph-name="i" horiz-adv-x="240" d="M51 722V604H189V722H51ZM51 538V0H189V538H51Z" />
<glyph unicode="j" glyph-name="j" horiz-adv-x="240" d="M51 722V604H189V722H51ZM51 538V10Q51 -32 43 -52T0 -73H-11Q-16 -73 -22 -71V-171Q-7 -172 6 -172T31 -173Q77 -173 107 -164T156 -138T181 -94T189 -34V538H51Z" />
<glyph unicode="k" glyph-name="k" horiz-adv-x="500" d="M189 714H51V0H189V157L238 221L353 0H505L327 326L482 538H330L191 337H189V714Z" />
<glyph unicode="l" glyph-name="l" horiz-adv-x="240" d="M51 714V0H189V714H51Z" />
<glyph unicode="m" glyph-name="m" horiz-adv-x="758" d="M46 538V0H184V354Q184 402 203 424T256 446Q285 446 297 428T310 376V0H448V354Q448 402 467 424T520 446Q549 446 561 428T574 376V0H712V391Q712 469 680 510T578 552Q529 552 494 531T442 466H440Q429
508 397 530T316 552Q271 552 239 536T180 483H178V538H46Z" />
<glyph unicode="n" glyph-name="n" horiz-adv-x="500" d="M46 538V0H184V357Q184 446 257 446Q288 446 302 430T316 371V0H454V399Q454 480 419 516T317 552Q272 552 237 534T180 475H178V538H46Z" />
<glyph unicode="o" glyph-name="o" horiz-adv-x="480" d="M166 269Q166 310 168 345T177 405T200 444T240 458Q282 458 298 414T314 269Q314 168 298 124T240 80Q215 80 200 94T178 133T168 193T166 269ZM28 269Q28 199 38 146T72 57T137 5T240 -11Q299 -11 339
6T405 58T441 147T452 269Q452 340 442 393T408 482T343 535T240 552Q181 552 141 534T75 480T39 391T28 269Z" />
<glyph unicode="p" glyph-name="p" horiz-adv-x="500" d="M46 538V-173H184V50H186Q208 18 235 4T302 -11Q387 -11 427 54T467 269Q467 419 427 485T302 552Q260 552 232 536T180 481H178V538H46ZM184 269Q184 357 197 401T257 446Q302 446 315 402T329 269Q329
181 316 137T257 92Q211 92 198 136T184 269Z" />
<glyph unicode="q" glyph-name="q" horiz-adv-x="500" d="M316 50V-173H454V538H322V481H320Q297 519 269 535T198 552Q113 552 73 486T33 269Q33 119 73 54T198 -11Q237 -11 264 3T314 50H316ZM316 269Q316 181 303 137T243 92Q198 92 185 136T171 269Q171 357
184 401T243 446Q289 446 302 402T316 269Z" />
<glyph unicode="r" glyph-name="r" horiz-adv-x="333" d="M46 538V0H184V323Q184 350 193 368T217 398T250 415T286 420Q297 420 307 420T329 418V550Q323 551 317 551T304 552Q261 552 231 529T180 466H178V538H46Z" />
<glyph unicode="s" glyph-name="s" horiz-adv-x="444" d="M147 176H23V157Q23 118 32 87T63 33T124 0T221 -11Q265 -11 301 -2T364 28T406 80T421 155Q421 216 394 251T302 309L219 337Q184 348 172 364T159 400Q159 429 178 443T224 458Q258 458 271 439T285
377H409V399Q409 472 364 512T225 552Q172 552 135 539T73 504T38 453T27 390Q27 333 56 297T142 240L239 205Q259 197 274 184T289 144Q289 112 270 96T219 80Q184 80 166 101T147 158V176Z" />
<glyph unicode="t" glyph-name="t" horiz-adv-x="296" d="M76 692V538H6V444H76V136Q76 95 81 68T99 25T138 3T204 -3Q228 -3 249 -2T294 0V96Q287 95 279 95T263 94Q233 94 224 107T214 153V444H294V538H214V692H76Z" />
<glyph unicode="u" glyph-name="u" horiz-adv-x="500" d="M322 63V0H454V538H316V181Q316 92 243 92Q212 92 198 108T184 167V538H46V139Q46 58 81 24T183 -11Q228 -11 263 6T320 63H322Z" />
<glyph unicode="v" glyph-name="v" horiz-adv-x="444" d="M301 538L228 153H226L149 538H5L144 0H304L439 538H301Z" />
<glyph unicode="w" glyph-name="w" horiz-adv-x="704" d="M7 538L124 0H284L351 382H353L424 0H581L697 538H565L500 156H498L427 538H277L210 156H208L145 538H7Z" />
<glyph unicode="x" glyph-name="x" horiz-adv-x="462" d="M305 538L231 376L157 538H13L153 277L7 0H151L231 176L311 0H455L309 277L449 538H305Z" />
<glyph unicode="y" glyph-name="y" horiz-adv-x="444" d="M46 -70V-173H102Q150 -173 181 -166T235 -137T274 -73T309 36L439 538H301L231 166H229L149 538H5L156 0Q153 -33 137 -53T82 -73Q64 -73 46 -70Z" />
<glyph unicode="z" glyph-name="z" horiz-adv-x="426" d="M24 106V0H402V112H187L402 432V538H34V426H239L24 106Z" />
<glyph unicode="{" glyph-name="braceleft" horiz-adv-x="315" d="M30 306V224Q55 224 75 201T96 143V-47Q96 -111 122 -146T200 -181H289V-81H259Q235 -81 228 -60T220 -9V154Q220 199 200 228T148 264V266Q180 272 200 301T220 376V542Q220 571 227 592T259
614H289V714H200Q149 714 123 679T96 580V387Q96 352 76 329T30 306Z" />
<glyph unicode="|" glyph-name="bar" horiz-adv-x="222" d="M49 728V-11H173V728H49Z" />
<glyph unicode="}" glyph-name="braceright" horiz-adv-x="315" d="M26 -81V-181H115Q166 -181 192 -146T219 -47V143Q219 178 239 201T285 224V306Q260 306 240 329T219 387V580Q219 644 193 679T115 714H26V614H56Q80 614 87 593T95 542V376Q95 331 115 302T167
266V264Q135 258 115 229T95 154V-9Q95 -38 88 -59T56 -81H26Z" />
<glyph unicode="~" glyph-name="asciitilde" horiz-adv-x="600" d="M531 243L495 349Q491 340 482 328T461 306T434 288T405 281Q384 281 363 289T301 320Q245 349 192 349Q147 349 118 325T69 263L105 157Q109 166 118 178T139 200T166 218T195 225Q203 225 211
224T229 219T254 209T290 191Q319 176 346 167T408 157Q453 157 482 181T531 243Z" />
</font>
</defs>
</svg>
