<?xml version="1.0" standalone="no"?> <!DOCTYPE svg PUBLIC "-//W3C//DTD SVG 1.0//EN" "http://www.w3.org/TR/2001/REC-SVG-20010904/DTD/svg10.dtd" > <svg xmlns="http://www.w3.org/2000/svg" width="100%" height="100%">
<defs >
<font id="helveticaneuebolditalic" horiz-adv-x="479" ><font-face
    font-family="Helvetica Neue"
    units-per-em="1000"
    panose-1="2 0 8 3 0 0 0 9 0 4"
    ascent="975"
    descent="-217"
    alphabetic="0" />
<missing-glyph horiz-adv-x="500" d="M442 8H58V504H442V8ZM50 512V0H450V512H50Z" />
<glyph unicode=" " glyph-name="space" horiz-adv-x="278" />
<glyph unicode="!" glyph-name="exclam" horiz-adv-x="296" d="M259 520L301 714H150L109 520L84 214H154L259 520ZM29 154L-3 0H154L187 154H29Z" />
<glyph unicode="&quot;" glyph-name="quotedbl" horiz-adv-x="481" d="M127 714V393H234V714H127ZM313 714V393H420V714H313Z" />
<glyph unicode="#" glyph-name="numbersign" horiz-adv-x="556" d="M236 412H332L315 288H218L236 412ZM109 198L81 0H178L206 198H302L275 0H372L399 198H486L496 288H412L429 412H516L526 502H442L469 700H372L345 502H248L276 700H179L151 502H66L56 412H139L121
288H36L26 198H109Z" />
<glyph unicode="$" glyph-name="dollar" horiz-adv-x="556" d="M204 -13L186 -103H235L252 -16Q302 -16 351 -3T440 39T503 113T528 223Q528 276 513 310T471 366T409 402T336 428L369 605Q395 594 411 571T426 506H563Q567 554 555 591T520 655T464 699T393 724L410
810H362L346 731H343Q291 731 242 719T156 680T96 612T73 515Q73 465 87 433T126 378T184 342T255 315L266 311L226 105Q186 112 164 142T143 240H6Q4 118 54 58T204 -13ZM323 614L291 444Q257 455 234 473T210 526Q210 549 220 565T245 592T279 608T316 614H323ZM274
100L312 296Q326 290 340 283T365 265T384 239T391 204Q391 176 380 156T352 124T315 106T274 100Z" />
<glyph unicode="%" glyph-name="percent" horiz-adv-x="963" d="M542 144Q542 75 579 31T689 -13Q738 -13 776 6T840 59T879 135T893 224Q893 300 852 338T735 376Q687 376 651 357T590 305T554 230T542 144ZM644 126Q644 149 648 179T664 236T695 282T743 301Q766
301 778 284T791 245Q791 224 786 193T770 132T741 82T696 61Q667 61 656 79T644 126ZM713 722L175 -21H261L798 722H713ZM175 464Q175 487 179 517T195 574T226 620T274 639Q297 639 309 622T322 583Q322 562 317 531T301 470T272 420T227 399Q198 399 187 417T175
464ZM73 482Q73 413 110 369T220 324Q269 324 307 344T371 397T410 473T424 562Q424 638 383 676T266 714Q218 714 182 695T121 643T85 568T73 482Z" />
<glyph unicode="&amp;" glyph-name="ampersand" horiz-adv-x="685" d="M288 554Q288 591 311 609T365 627Q392 627 410 609T428 559Q428 541 418 525T392 496T359 472T326 454Q312 477 300 501T288 554ZM427 56L459 0H615L524 140Q569 180 597 232T637 343H510Q503
315 491 289T458 242L381 366Q410 381 439 399T491 441T530 494T545 560Q545 601 530 631T489 681T429 712T358 722Q315 722 279 710T217 673T176 615T161 536Q161 502 176 471T209 410Q171 395 136 375T75 327T32 264T16 183Q16 136 34 100T82 38T152 0T235 -13Q292
-13 337 3T427 56ZM267 315L365 156Q340 136 310 120T247 103Q230 103 213 108T183 124T161 150T153 183Q153 211 163 230T189 265T225 291T267 315Z" />
<glyph unicode="&apos;" glyph-name="quotesingle" horiz-adv-x="278" d="M110 714V393H217V714H110Z" />
<glyph unicode="(" glyph-name="parenleft" horiz-adv-x="296" d="M387 731H262Q206 661 162 594T88 457T42 309T26 138Q26 107 30 65T43 -22T62 -108T88 -181H196Q181 -115 170 -50T158 81Q158 170 169 250T207 409T278 566T387 731Z" />
<glyph unicode=")" glyph-name="parenright" horiz-adv-x="296" d="M-111 -181H13Q68 -111 112 -45T186 92T233 240T249 411Q249 443 244 485T231 571T212 658T187 731H79Q94 665 105 600T117 468Q117 379 106 299T68 140T-2 -17T-111 -181Z" />
<glyph unicode="*" glyph-name="asterisk" horiz-adv-x="407" d="M289 582L313 710L231 714L214 594L105 649L71 576L179 524L90 432L148 376L234 473L289 364L361 403L304 508L424 526L410 605L289 582Z" />
<glyph unicode="+" glyph-name="plus" horiz-adv-x="600" d="M48 306V199H247V0H354V199H553V306H354V505H247V306H48Z" />
<glyph unicode="," glyph-name="comma" horiz-adv-x="278" d="M19 154L-12 0H56Q48 -42 30 -65T-32 -95L-47 -166Q2 -164 35 -150T90 -112T125 -58T146 8T161 80T177 154H19Z" />
<glyph unicode="-" glyph-name="hyphen" horiz-adv-x="407" d="M53 334L27 212H328L354 334H53Z" />
<glyph unicode="." glyph-name="period" horiz-adv-x="278" d="M20 154L-12 0H145L178 154H20Z" />
<glyph unicode="/" glyph-name="slash" horiz-adv-x="389" d="M277 731L-1 -16H112L391 731H277Z" />
<glyph unicode="0" glyph-name="zero" horiz-adv-x="556" d="M138 226Q138 251 141 288T153 366T174 448T208 523T255 576T317 597Q344 597 363 587T395 560T413 520T419 471Q419 447 416 411T404 333T381 251T347 177T300 124T236 103Q207 103 188 113T158 139T143
178T138 226ZM-3 255Q-3 201 9 153T47 67T115 9T218 -13Q277 -13 325 7T411 61T477 141T524 238T552 343T561 449Q561 508 547 556T503 640T430 694T327 714Q271 714 225 694T142 640T78 559T33 462T6 358T-3 255Z" />
<glyph unicode="1" glyph-name="one" horiz-adv-x="556" d="M323 0L471 700H355Q336 659 312 633T258 592T194 570T120 561L97 454H268L172 0H323Z" />
<glyph unicode="2" glyph-name="two" horiz-adv-x="556" d="M44 448H179Q180 477 189 503T215 549T255 580T308 592Q353 592 384 570T416 494Q416 459 398 433T354 387T297 350T240 319Q189 292 140 263T52 198T-12 113T-41 0H477L505 122H160Q187 151 227 176T311
226T399 279T479 338T536 411T558 503Q558 557 540 597T489 663T415 701T325 714Q204 714 129 645T44 448Z" />
<glyph unicode="3" glyph-name="three" horiz-adv-x="556" d="M235 417L216 317H267Q309 317 337 297T366 230Q366 169 327 136T231 103Q168 103 139 140T117 240H-17Q-25 114 36 51T227 -13Q286 -13 338 1T429 44T492 118T515 225Q515 279 493 315T417 368V370Q475
382 512 425T549 531Q549 582 529 617T476 673T402 704T318 714Q206 714 135 653T47 477H182Q195 537 225 567T316 597Q335 597 352 592T383 576T404 549T412 510Q412 482 400 464T368 436T325 421T278 417H235Z" />
<glyph unicode="4" glyph-name="four" horiz-adv-x="556" d="M449 279L538 700H400L-9 291L-35 162H289L254 0H389L424 162H517L542 279H449ZM314 279H106L369 548H371L314 279Z" />
<glyph unicode="5" glyph-name="five" horiz-adv-x="556" d="M531 583L556 700H142L20 310H148Q169 341 196 355T260 369Q317 369 348 340T379 250Q379 218 368 191T338 145T294 114T239 103Q188 103 155 127T120 204H-16Q-12 91 53 39T229 -13Q292 -13 345 6T438
62T499 150T521 267Q521 316 505 354T462 420T400 461T326 476Q299 476 279 473T242 464T214 450T189 432L187 434L233 583H531Z" />
<glyph unicode="6" glyph-name="six" horiz-adv-x="556" d="M440 519H577Q575 570 558 607T511 667T442 702T356 714Q275 714 212 679T104 584T36 444T13 271Q13 209 26 157T70 67T147 8T261 -13Q318 -13 367 8T453 65T510 150T531 256Q531 305 517 344T475 412T410
455T324 470Q279 470 238 453T170 396L168 398Q179 432 193 469T229 536T280 587T351 607Q390 607 414 583T440 519ZM150 221Q150 250 159 275T184 320T224 351T278 363Q329 363 359 334T389 245Q389 184 355 144T257 103Q209 103 180 136T150 221Z" />
<glyph unicode="7" glyph-name="seven" horiz-adv-x="556" d="M565 578L591 700H94L66 568H410Q355 517 301 449T202 306T121 151T68 0H219Q238 75 272 156T351 314T450 459T565 578Z" />
<glyph unicode="8" glyph-name="eight" horiz-adv-x="556" d="M195 509Q195 555 226 581T312 607Q334 607 354 602T389 585T414 555T423 512Q423 490 414 473T388 443T352 425T309 418Q291 418 271 422T234 438T206 466T195 509ZM68 509Q68 464 93 430T155 379V377Q118
368 86 353T31 316T-6 263T-19 192Q-19 147 0 109T53 44T135 2T240 -13Q294 -13 345 2T436 45T500 115T524 211Q524 237 516 263T492 310T457 347T415 368V370Q445 376 470 391T512 428T540 475T550 526Q550 565 535 599T491 658T422 699T332 714Q277 714 229 700T145
660T89 595T68 509ZM122 201Q122 262 161 292T258 323Q280 323 302 316T342 296T371 261T382 211Q382 156 345 125T245 93Q221 93 199 100T160 122T132 156T122 201Z" />
<glyph unicode="9" glyph-name="nine" horiz-adv-x="556" d="M125 181H-11Q-9 130 8 93T55 33T123 -2T209 -13Q290 -13 353 21T461 116T529 256T552 429Q552 491 539 543T495 633T418 692T304 714Q247 714 198 693T112 636T55 550T34 444Q34 395 48 356T90 288T155
245T241 230Q286 230 327 247T395 304L397 302Q386 268 372 231T336 164T285 113T214 93Q175 93 151 117T125 181ZM415 479Q415 451 406 425T381 380T341 349T287 337Q236 337 206 366T176 455Q176 516 210 556T308 597Q331 597 350 588T384 564T407 527T415 479Z"
/>
<glyph unicode=":" glyph-name="colon" horiz-adv-x="278" d="M219 354L252 508H94L61 354H219ZM20 154L-12 0H145L178 154H20Z" />
<glyph unicode=";" glyph-name="semicolon" horiz-adv-x="278" d="M94 508L61 354H219L252 508H94ZM19 154L-12 0H56Q48 -42 30 -65T-32 -95L-47 -166Q2 -164 35 -150T90 -112T125 -58T146 8T161 80T177 154H19Z" />
<glyph unicode="&lt;" glyph-name="less" horiz-adv-x="600" d="M554 399V514L46 312V194L554 -7V107L187 253L554 399Z" />
<glyph unicode="=" glyph-name="equal" horiz-adv-x="600" d="M553 92V199H48V92H553ZM553 306V413H48V306H553Z" />
<glyph unicode="&gt;" glyph-name="greater" horiz-adv-x="600" d="M46 107V-7L554 194V312L46 514V399L413 253L46 107Z" />
<glyph unicode="?" glyph-name="question" horiz-adv-x="574" d="M156 154L123 0H281L314 154H156ZM74 491H216Q219 515 228 537T251 577T286 604T334 614Q369 614 395 595T421 536Q421 501 400 477T350 436Q314 417 287 399T239 358T205 302T185 220H317Q323
273 355 303T431 356Q459 372 484 390T528 431T558 482T570 546Q570 594 552 629T504 686T435 720T352 731Q295 731 246 716T160 671T100 596T74 491Z" />
<glyph unicode="@" glyph-name="at" horiz-adv-x="800" d="M559 287L622 545H540L524 491Q507 530 473 545T407 561Q358 561 318 539T249 481T205 399T189 306Q189 271 201 240T235 186T285 149T346 135Q378 135 407 149T454 193H456Q458 168 477 152T529 136Q553
136 592 152T670 204T736 294T764 426Q764 495 735 551T658 647T547 709T416 731Q338 731 269 702T148 623T66 505T36 357Q36 277 66 209T148 90T271 12T421 -16Q515 -16 595 25T726 145H642Q603 106 547 85T427 63Q363 63 309 84T215 143T154 235T132 355Q132
418 152 472T209 566T298 628T415 651Q471 651 520 635T605 588T663 511T684 405Q684 365 674 331T647 273T610 235T568 221Q559 221 555 227T551 244Q551 254 553 265T559 287ZM291 319Q291 344 300 370T325 417T365 452T415 466Q447 466 469 442T492 381Q492
355 483 328T458 280T419 244T369 230Q334 230 313 254T291 319Z" />
<glyph unicode="A" glyph-name="A" horiz-adv-x="685" d="M345 714L-76 0H89L179 159H446L469 0H625L506 714H345ZM241 276L395 560H397L432 276H241Z" />
<glyph unicode="B" glyph-name="B" horiz-adv-x="722" d="M237 425L272 592H438Q476 592 498 577T521 519Q521 472 490 449T415 425H237ZM146 714L-3 0H377Q431 0 480 15T567 59T627 132T650 234Q650 286 623 325T544 379V381Q576 385 600 400T642 437T669 488T678
547Q678 598 662 630T616 681T543 707T446 714H146ZM173 122L215 318H369Q390 318 412 316T452 306T481 281T493 237Q493 180 459 151T370 122H173Z" />
<glyph unicode="C" glyph-name="C" horiz-adv-x="741" d="M556 466H713Q714 531 693 580T634 663T542 714T427 731Q337 731 265 696T142 602T64 464T37 299Q37 146 119 65T354 -16Q412 -16 461 -2T551 45T624 130T681 257H524Q519 229 504 203T467 158T417 127T356
115Q313 115 283 130T233 170T204 229T194 299Q194 350 208 403T250 500T323 571T428 599Q485 599 520 566T556 466Z" />
<glyph unicode="D" glyph-name="D" horiz-adv-x="741" d="M181 132L277 582H395Q437 582 466 570T515 534T542 480T551 409Q551 352 535 302T487 214T409 154T302 132H181ZM147 714L-3 0H295Q398 0 475 33T604 124T682 263T708 436Q708 569 632 641T405 714H147Z" />
<glyph unicode="E" glyph-name="E" horiz-adv-x="667" d="M146 714L-3 0H547L575 132H181L218 307H577L603 429H244L276 582H664L691 714H146Z" />
<glyph unicode="F" glyph-name="F" horiz-adv-x="593" d="M147 714L-3 0H153L216 295H521L547 417H241L276 582H626L655 714H147Z" />
<glyph unicode="G" glyph-name="G" horiz-adv-x="759" d="M536 73V0H635L717 386H414L389 269H554Q544 235 529 207T490 158T434 127T356 115Q313 115 283 130T233 170T204 229T194 299Q194 350 208 403T250 500T323 571T428 599Q494 599 532 572T573 478H730Q730
544 706 591T641 670T545 716T427 731Q337 731 265 696T142 602T64 464T37 299Q37 146 119 65T354 -16Q405 -16 452 4T534 73H536Z" />
<glyph unicode="H" glyph-name="H" horiz-adv-x="741" d="M147 714L-3 0H154L219 308H508L443 0H601L752 714H594L536 440H247L305 714H147Z" />
<glyph unicode="I" glyph-name="I" horiz-adv-x="296" d="M147 714L-3 0H154L305 714H147Z" />
<glyph unicode="J" glyph-name="J" horiz-adv-x="556" d="M459 203L565 714H407L308 237Q302 213 296 191T279 152T249 125T200 115Q170 115 147 132T123 182Q123 199 127 221T137 266H-5Q-10 238 -14 212T-18 156Q-18 109 0 76T48 23T117 -7T198 -16Q314 -16
374 40T459 203Z" />
<glyph unicode="K" glyph-name="K" horiz-adv-x="722" d="M145 714L-3 0H154L201 226L310 321L473 0H650L431 420L774 714H566L242 415H240L302 714H145Z" />
<glyph unicode="L" glyph-name="L" horiz-adv-x="574" d="M146 714L-3 0H499L527 132H182L304 714H146Z" />
<glyph unicode="M" glyph-name="M" horiz-adv-x="907" d="M147 714L-3 0H145L252 568H254L323 0H443L745 568H747L617 0H764L915 714H696L421 197H419L364 714H147Z" />
<glyph unicode="N" glyph-name="N" horiz-adv-x="741" d="M147 714L-3 0H143L245 501H247L443 0H600L751 714H607L505 206H503L309 714H147Z" />
<glyph unicode="O" glyph-name="O" horiz-adv-x="778" d="M37 299Q37 146 119 65T354 -16Q448 -16 520 19T642 116T718 257T744 425Q744 500 722 557T658 653T558 711T427 731Q337 731 265 696T142 602T64 464T37 299ZM194 299Q194 350 208 403T250 500T323 571T428
599Q472 599 502 584T551 544T578 486T587 414Q587 363 573 310T529 214T457 143T356 115Q313 115 283 130T233 170T204 229T194 299Z" />
<glyph unicode="P" glyph-name="P" horiz-adv-x="667" d="M145 714L-3 0H153L207 256H401Q457 256 507 273T595 322T656 400T679 506Q679 565 661 605T609 669T531 703T431 714H145ZM233 378L277 592H411Q432 592 451 588T487 575T512 548T522 503Q522 439 488
409T393 378H233Z" />
<glyph unicode="Q" glyph-name="Q" horiz-adv-x="778" d="M598 -78L682 -8L606 77Q675 140 709 231T744 425Q744 500 722 557T658 653T558 711T427 731Q337 731 265 696T142 602T64 464T37 299Q37 146 119 65T354 -16Q399 -16 439 -8T514 17L598 -78ZM446 258L362
189L418 126Q387 115 356 115Q313 115 283 130T233 170T204 229T194 299Q194 350 208 403T250 500T323 571T428 599Q472 599 502 584T551 544T578 486T587 414Q587 354 568 293T509 187L446 258Z" />
<glyph unicode="R" glyph-name="R" horiz-adv-x="722" d="M236 391L278 592H427Q450 592 471 589T508 577T533 551T543 504Q543 474 530 453T494 418T442 398T381 391H236ZM146 714L-3 0H153L212 279H360Q383 279 402 276T434 262T455 236T463 193Q463 157 459
121T455 48Q455 36 457 25T462 0H615Q609 16 607 37T605 83Q605 116 607 149T610 207Q610 250 595 284T536 333V335Q572 340 602 357T654 399T688 458T700 527Q700 579 685 615T642 673T575 705T487 714H146Z" />
<glyph unicode="S" glyph-name="S" horiz-adv-x="648" d="M154 237H5Q5 106 78 45T302 -16Q353 -16 405 -4T498 37T566 110T593 219Q593 267 579 300T540 356T479 393T402 419Q384 423 355 429T299 447T252 476T232 520Q232 545 243 562T272 589T312 604T357 609Q384
609 408 604T449 585T476 552T485 501H634Q634 563 613 606T555 678T470 718T366 731Q314 731 264 719T173 680T108 611T83 509Q83 463 98 431T139 377T197 341T263 317Q296 307 328 298T386 277T428 249T444 206Q444 179 432 160T400 129T356 111T308 105Q274
105 245 111T195 133T163 173T154 237Z" />
<glyph unicode="T" glyph-name="T" horiz-adv-x="611" d="M278 582L156 0H314L436 582H650L678 714H82L54 582H278Z" />
<glyph unicode="U" glyph-name="U" horiz-adv-x="741" d="M663 299L750 714H593L504 291Q495 251 485 218T456 163T407 128T329 115Q288 115 262 125T221 149T201 181T195 211Q195 220 196 231T200 256T205 280T210 301L297 714H140L53 301Q48 275 43 249T38 195Q38
136 62 96T126 31T216 -5T319 -16Q402 -16 460 4T558 64T622 163T663 299Z" />
<glyph unicode="V" glyph-name="V" horiz-adv-x="630" d="M331 0L712 714H549L278 178H276L229 714H72L154 0H331Z" />
<glyph unicode="W" glyph-name="W" horiz-adv-x="944" d="M678 0L1013 714H856L638 193H636L618 714H468L242 191H240L230 714H73L122 0H280L502 510H504L522 0H678Z" />
<glyph unicode="X" glyph-name="X" horiz-adv-x="667" d="M255 376L-69 0H120L324 255L436 0H609L432 369L729 714H543L360 478L259 714H88L255 376Z" />
<glyph unicode="Y" glyph-name="Y" horiz-adv-x="648" d="M232 277L175 0H333L388 270L736 714H551L329 410L222 714H61L232 277Z" />
<glyph unicode="Z" glyph-name="Z" horiz-adv-x="648" d="M-15 130L-42 0H558L584 132H181L662 588L688 714H124L95 582H461L-15 130Z" />
<glyph unicode="[" glyph-name="bracketleft" horiz-adv-x="333" d="M155 731L-36 -181H221L245 -69H119L264 619H389L413 731H155Z" />
<glyph unicode="\" glyph-name="backslash" horiz-adv-x="389" d="M391 -16L112 731H-1L277 -16H391Z" />
<glyph unicode="]" glyph-name="bracketright" horiz-adv-x="333" d="M146 -181L338 731H80L56 619H182L37 -69H-87L-111 -181H146Z" />
<glyph unicode="^" glyph-name="asciicircum" horiz-adv-x="600" d="M233 700L61 315H178L300 590L422 315H539L367 700H233Z" />
<glyph unicode="_" glyph-name="underscore" horiz-adv-x="500" d="M0 -74V-124H500V-74H0Z" />
<glyph unicode="`" glyph-name="grave" horiz-adv-x="259" d="M264 581L176 723H24L164 581H264Z" />
<glyph unicode="a" glyph-name="a" horiz-adv-x="574" d="M60 360H193Q200 399 230 417T298 436Q312 436 327 434T356 424T379 405T388 373Q388 348 376 336T340 317T278 307T191 298Q97 287 46 242T-6 122Q-6 95 4 71T35 28T87 -2T161 -13Q206 -13 248 2T319
51V0H461Q456 17 456 30Q456 45 457 65T463 100L509 308Q520 358 520 395Q521 439 501 465T448 506T378 526T305 531Q261 531 220 523T146 494T90 442T60 360ZM360 248L346 198Q340 177 331 156T307 119T269 92T213 81Q182 81 159 95T135 139Q135 163 144 178T167
203T201 216T240 223Q271 225 302 228T360 248Z" />
<glyph unicode="b" glyph-name="b" horiz-adv-x="611" d="M138 714L-11 0H119L136 81H138Q157 27 201 7T300 -13Q366 -13 416 15T500 88T551 192T568 311Q568 356 558 396T525 466T467 513T382 531Q331 531 297 515T229 462H227L280 714H138ZM325 424Q380 424
403 391T426 309Q426 276 418 238T391 168T344 114T274 93Q225 93 198 123T171 202Q171 236 179 275T206 347T254 402T325 424Z" />
<glyph unicode="c" glyph-name="c" horiz-adv-x="556" d="M392 338H534Q533 389 515 426T465 486T391 520T302 531Q232 531 178 506T87 436T30 333T10 208Q10 94 70 41T240 -13Q342 -13 408 39T507 189H365Q359 170 350 153T326 122T293 101T250 93Q223 93 205
102T174 126T157 161T152 205Q152 238 159 276T184 348T229 402T297 424Q345 424 368 404T392 338Z" />
<glyph unicode="d" glyph-name="d" horiz-adv-x="611" d="M307 424Q359 424 384 394T409 312Q409 279 400 241T371 169T322 115T253 93Q228 93 209 102T178 127T159 164T152 208Q152 242 161 280T189 350T237 403T307 424ZM364 64L350 0H487L638 714H496L439 448H437Q420
491 379 511T292 531Q220 531 167 502T79 424T27 315T10 190Q10 96 61 42T207 -13Q255 -13 296 5T362 66L364 64Z" />
<glyph unicode="e" glyph-name="e" horiz-adv-x="574" d="M399 314H162Q170 336 181 356T210 391T250 415T303 424Q334 424 353 415T382 389T395 354T399 314ZM147 224H528Q536 267 536 305Q536 361 519 403T470 474T394 517T295 531Q229 531 176 505T87 434T30
332T10 212Q10 156 26 114T73 44T145 1T240 -13Q296 -13 338 -2T413 31T468 87T508 164H366Q358 152 349 139T327 116T298 100T260 93Q202 93 174 121T146 194V207Q146 211 146 215Q146 219 147 224Z" />
<glyph unicode="f" glyph-name="f" horiz-adv-x="352" d="M106 422L17 0H159L248 422H350L370 517H269Q275 540 279 557T290 587T312 606T353 613Q364 613 376 612T399 610L421 712Q398 716 375 718T328 720Q272 720 238 707T182 668T149 605T127 517H42L22 422H106Z" />
<glyph unicode="g" glyph-name="g" horiz-adv-x="611" d="M487 27L590 517H454L438 438H436Q414 489 373 510T278 531Q216 531 168 504T86 432T35 332T17 219Q17 171 31 133T70 66T133 23T216 8Q303 8 358 81L360 79Q349 42 338 9T311 -48T273 -86T216 -100Q199
-100 182 -96T152 -83T130 -60T123 -26H-18Q-18 -73 1 -105T52 -157T123 -186T202 -195Q266 -195 313 -182T395 -142T452 -73T487 27ZM304 424Q356 424 381 393T406 312Q406 279 397 244T369 181T322 134T255 115Q230 115 212 124T182 149T165 185T159 229Q159
260 168 294T196 357T241 405T304 424Z" />
<glyph unicode="h" glyph-name="h" horiz-adv-x="611" d="M137 714L-11 0H130L188 275Q194 302 205 328T234 374T276 406T333 419Q358 419 379 404T401 366Q401 355 398 335T392 303L329 0H471L535 303Q536 310 538 321T543 346T548 371T550 392Q550 531 399 531Q364
531 336 524T287 505T251 481T228 457H226L279 714H137Z" />
<glyph unicode="i" glyph-name="i" horiz-adv-x="259" d="M257 597L283 714H140L114 597H257ZM98 517L-11 0H131L241 517H98Z" />
<glyph unicode="j" glyph-name="j" horiz-adv-x="259" d="M257 597L283 714H140L114 597H257ZM-107 -62L-131 -176Q-114 -177 -97 -179T-62 -181Q-14 -181 18 -171T72 -141T107 -90T129 -18L242 517H100L-2 28Q-5 18 -8 3T-17 -28T-32 -53T-56 -64Q-69 -64 -81
-64T-107 -62Z" />
<glyph unicode="k" glyph-name="k" horiz-adv-x="556" d="M138 714L-11 0H130L165 168L239 231L324 0H480L347 321L579 517H404L200 324L198 326L280 714H138Z" />
<glyph unicode="l" glyph-name="l" horiz-adv-x="259" d="M140 714L-11 0H130L282 714H140Z" />
<glyph unicode="m" glyph-name="m" horiz-adv-x="907" d="M96 517L-11 0H130L188 277Q193 301 204 326T231 371T270 405T321 419Q348 419 365 403T383 364Q383 347 379 327L311 0H454L512 277Q517 301 528 326T555 371T594 405T645 419Q672 419 689 403T707 364Q707
347 703 327L635 0H777L841 304Q846 327 851 351T856 400Q856 433 843 458T808 499T758 523T699 531Q674 531 649 525T600 506T557 478T524 441Q515 489 481 510T399 531Q342 531 296 510T218 444H216L232 517H96Z" />
<glyph unicode="n" glyph-name="n" horiz-adv-x="611" d="M96 517L-11 0H130L188 275Q194 302 205 328T234 374T276 406T333 419Q358 419 379 404T401 366Q401 355 398 335T392 303L329 0H471L535 303Q536 310 538 321T543 346T548 371T550 392Q550 531 399 531Q287
531 218 445H216L232 517H96Z" />
<glyph unicode="o" glyph-name="o" horiz-adv-x="593" d="M152 209Q152 242 161 279T188 349T234 402T302 424Q359 424 382 393T406 310Q406 277 397 239T370 169T323 115T254 93Q229 93 210 102T178 128T159 165T152 209ZM10 209Q10 98 74 43T247 -13Q318 -13
373 12T468 81T527 184T548 312Q548 368 531 409T481 477T405 517T307 531Q238 531 183 506T90 436T31 334T10 209Z" />
<glyph unicode="p" glyph-name="p" horiz-adv-x="611" d="M90 517L-58 -181H83L137 69H140Q148 48 163 33T198 7T240 -8T285 -13Q357 -13 409 16T497 93T549 202T566 327Q566 421 515 476T370 531Q322 531 281 512T215 451L213 453L227 517H90ZM323 424Q348 424
367 415T398 390T417 353T424 309Q424 275 415 237T387 167T339 114T269 93Q217 93 192 123T167 205Q167 238 176 276T205 348T254 402T323 424Z" />
<glyph unicode="q" glyph-name="q" horiz-adv-x="611" d="M308 424Q357 424 384 394T411 315Q411 280 402 241T373 169T324 115T257 93Q228 93 208 102T176 126T158 163T152 208Q152 241 161 279T188 349T236 403T308 424ZM443 -181L590 517H459L442 436H440Q421
490 377 510T278 531Q212 531 162 503T78 429T27 325T10 206Q10 161 21 121T55 51T114 4T200 -13Q254 -13 288 1T346 41H348L301 -181H443Z" />
<glyph unicode="r" glyph-name="r" horiz-adv-x="389" d="M96 517L-11 0H130L178 229Q185 262 196 292T227 347T275 385T345 399Q360 399 375 396T405 390L434 528Q412 531 390 531Q333 531 285 504T212 422L210 424L231 517H96Z" />
<glyph unicode="s" glyph-name="s" horiz-adv-x="519" d="M352 366H484Q485 416 468 448T422 498T353 524T272 531Q235 531 195 523T120 495T65 444T43 367Q43 336 50 315T72 279T107 254T155 235L264 200Q287 192 301 181T315 143Q315 125 307 114T286 95T257
84T225 81Q207 81 189 85T156 98T132 120T123 151V168H-8V147Q-8 101 12 71T63 22T134 -5T211 -13Q256 -13 300 -4T379 26T435 80T457 162Q457 194 447 218T418 259T375 289T321 310L250 333Q214 344 200 356T185 385Q185 413 209 424T272 436Q314 436 332 418T352
366Z" />
<glyph unicode="t" glyph-name="t" horiz-adv-x="370" d="M278 517L310 674H168L136 517H45L23 422H116L58 145Q55 131 53 119T51 96Q50 64 61 44T92 13T136 -3T186 -8Q209 -8 231 -7T275 -3L299 106Q274 103 248 103Q240 103 232 103T216 108T205 119T200 141Q200
144 201 150T204 165L257 422H358L380 517H278Z" />
<glyph unicode="u" glyph-name="u" horiz-adv-x="611" d="M478 0L586 517H444L386 242Q380 215 369 189T340 143T298 111T241 98Q216 98 195 113T173 151Q173 156 173 164T175 182T178 199T182 214L245 517H103L39 214Q37 207 35 196T30 171T26 146T24 125Q24
-13 175 -13Q287 -13 356 72H358L342 0H478Z" />
<glyph unicode="v" glyph-name="v" horiz-adv-x="519" d="M260 0L543 517H393L210 149H208L176 517H30L98 0H260Z" />
<glyph unicode="w" glyph-name="w" horiz-adv-x="815" d="M564 0L834 517H684L518 156H516L500 517H356L197 153H195L175 517H30L87 0H236L396 363H398L416 0H564Z" />
<glyph unicode="x" glyph-name="x" horiz-adv-x="519" d="M316 269L531 517H372L255 368L198 517H46L163 277L-76 0H84L222 170L297 0H447L316 269Z" />
<glyph unicode="y" glyph-name="y" horiz-adv-x="519" d="M214 -72L543 517H393L214 147H212L167 517H21L113 5Q106 -4 100 -16T84 -38T59 -56T19 -64Q5 -64 -9 -61T-38 -58L-62 -176Q-43 -177 -24 -179T13 -181Q53 -181 82 -177T135 -160T177 -127T214 -72Z" />
<glyph unicode="z" glyph-name="z" horiz-adv-x="500" d="M-28 105L-50 0H418L441 107H156L481 412L503 517H69L46 410H295L-28 105Z" />
<glyph unicode="{" glyph-name="braceleft" horiz-adv-x="333" d="M388 619L411 731H284Q267 731 244 723T199 698T158 656T133 596L94 408Q89 383 76 366T46 338T13 323T-16 318L-34 231Q-24 231 -11 228T14 216T34 195T42 164Q42 160 42 157T40 148L0 -46Q-3
-61 -3 -74Q-3 -101 6 -121T30 -154T61 -174T94 -181H221L244 -69H190Q167 -69 158 -59T148 -34Q148 -25 149 -15T152 3L185 163Q188 180 188 194Q188 216 179 230T158 254T132 267T109 273V276Q121 277 139 282T175 299T209 334T233 394L265 546Q270 575 285 597T334
619H388Z" />
<glyph unicode="|" glyph-name="bar" horiz-adv-x="222" d="M58 786V-213H165V786H58Z" />
<glyph unicode="}" glyph-name="braceright" horiz-adv-x="333" d="M-86 -69L-109 -181H17Q34 -181 57 -173T102 -148T143 -106T168 -46L207 141Q212 167 225 184T255 211T289 226T318 231L336 318Q325 318 312 321T287 333T267 354T259 385Q259 389 259 392T261
401L302 596Q305 611 305 624Q305 651 296 671T271 704T239 724T207 731H80L57 619H111Q134 619 143 609T153 584Q153 575 152 565T149 546L116 386Q113 370 113 355Q113 333 122 318T143 294T169 281T192 276V273Q180 271 162 267T126 250T91 215T68 155L36 3Q31
-25 16 -47T-32 -69H-86Z" />
<glyph unicode="~" glyph-name="asciitilde" horiz-adv-x="600" d="M533 251L493 344Q484 331 475 318T456 295T433 279T405 272Q385 272 358 284T303 308Q274 321 246 330T192 340Q167 340 148 333T113 313T86 286T67 254L107 161Q113 174 120 187T138 210T162
226T191 233Q226 233 254 223T306 198Q331 184 355 175T408 165Q431 165 449 172T483 192T510 219T533 251Z" />
</font>
</defs>
</svg>
