<?xml version="1.0" standalone="no"?> <!DOCTYPE svg PUBLIC "-//W3C//DTD SVG 1.0//EN" "http://www.w3.org/TR/2001/REC-SVG-20010904/DTD/svg10.dtd" > <svg xmlns="http://www.w3.org/2000/svg" width="100%" height="100%">
<defs >
<font id="helveticaneueultralightitalic" horiz-adv-x="395" ><font-face
    font-family="Helvetica Neue"
    units-per-em="1000"
    panose-1="2 0 2 6 0 0 0 9 0 4"
    ascent="924"
    descent="-213"
    alphabetic="0" />
<missing-glyph horiz-adv-x="500" d="M442 8H58V504H442V8ZM50 512V0H450V512H50Z" />
<glyph unicode=" " glyph-name="space" horiz-adv-x="278" />
<glyph unicode="!" glyph-name="exclam" horiz-adv-x="185" d="M163 714L45 182H66L184 714H163ZM28 98L6 0H27L49 98H28Z" />
<glyph unicode="&quot;" glyph-name="quotedbl" horiz-adv-x="278" d="M258 714H238V489H258V714ZM146 714H126V489H146V714Z" />
<glyph unicode="#" glyph-name="numbersign" horiz-adv-x="556" d="M185 249L209 426H380L356 249H185ZM245 680H225L194 446H63V426H189L165 249H35V229H160L129 0H149L180 229H352L321 0H341L372 229H493V249H376L400 426H521V446H405L436 680H416L385 446H214L245
680Z" />
<glyph unicode="$" glyph-name="dollar" horiz-adv-x="556" d="M187 -12L164 -112H184L207 -15Q212 -16 217 -16T228 -17H250Q289 -17 333 -7T416 28T479 93T505 192Q506 260 468 295T355 354Q342 358 327 362T295 372L372 710Q413 707 446 696T504 663T541 610T555
534V522Q555 515 554 510H574Q575 515 575 522V533Q575 629 521 675T377 729L393 800H373L357 730Q354 731 346 731H334Q288 731 244 720T166 684T110 622T87 530Q86 488 101 460T141 414T201 382T272 357L191 9Q149 15 114 30T55 71T17 130T4 206V223Q4 233 5
237H-14Q-15 233 -15 229Q-15 225 -15 221V207Q-16 158 -2 120T40 55T104 11T187 -12ZM352 711L276 378Q247 387 224 395T171 419Q105 455 107 533Q108 581 128 615T181 670T253 701T334 711Q343 713 352 711ZM211 6L291 352Q333 339 369 328T431 300T471 258T485
192Q485 137 460 101T399 44T323 13T250 4H230Q225 4 221 4T211 6Z" />
<glyph unicode="%" glyph-name="percent" horiz-adv-x="685" d="M561 714L85 -33H108L584 714H561ZM468 8Q420 8 388 37T355 117Q355 151 364 184T393 245T441 288T509 305Q569 305 596 274T623 191Q623 157 612 124T581 65T532 24T468 8ZM468 -11Q509 -11 541
7T596 53T631 118T643 191Q643 258 607 291T509 325Q467 325 435 307T380 260T347 194T335 117Q335 88 345 65T373 24T415 -2T468 -11ZM175 375Q127 375 95 404T62 484Q62 518 71 551T100 612T148 655T216 672Q276 672 303 641T330 558Q330 524 319 491T288 432T239
391T175 375ZM175 355Q216 355 248 373T303 420T338 486T350 558Q350 625 314 658T216 692Q174 692 142 674T87 627T54 561T42 484Q42 456 52 432T80 391T122 365T175 355Z" />
<glyph unicode="&amp;" glyph-name="ampersand" horiz-adv-x="574" d="M438 566Q438 535 420 510T373 465T313 428T255 398Q243 417 231 437T208 478T191 517T184 553Q184 583 195 605T225 642T266 664T314 672Q339 672 361 665T401 645T428 612T438 566ZM418
148L266 381Q296 396 329 414T391 454T439 504T458 566Q458 597 446 620T414 660T368 684T314 692Q282 692 255 682T207 653T176 609T164 553Q164 532 172 510T191 467T214 425T236 389Q197 370 157 351T86 305T34 243T14 156Q14 114 29 82T70 29T130 -4T202 -16Q277
-16 328 19T420 111L492 0H517L432 131Q449 162 464 199T485 274H465Q456 241 445 211T418 148ZM247 373L407 129Q373 74 321 39T202 3Q168 3 137 13T84 44T48 92T34 156Q34 204 54 236T105 293T174 335T247 373Z" />
<glyph unicode="&apos;" glyph-name="quotesingle" horiz-adv-x="167" d="M146 714H126V489H146V714Z" />
<glyph unicode="(" glyph-name="parenleft" horiz-adv-x="222" d="M289 731H264Q152 594 98 435T43 95Q43 29 55 -40T85 -176H105Q89 -113 76 -47T63 95Q63 270 117 430T289 731Z" />
<glyph unicode=")" glyph-name="parenright" horiz-adv-x="222" d="M-86 -176H-61Q51 -39 105 120T159 459Q159 525 147 595T117 731H97Q113 668 126 601T139 459Q139 284 84 125T-86 -176Z" />
<glyph unicode="*" glyph-name="asterisk" horiz-adv-x="352" d="M93 457L107 443L208 546L291 436L306 450L229 552L362 600L356 619L223 571L246 714H226L203 574L93 638L81 622L192 557L93 457Z" />
<glyph unicode="+" glyph-name="plus" horiz-adv-x="600" d="M290 243V0H310V243H552V263H310V506H290V263H48V243H290Z" />
<glyph unicode="," glyph-name="comma" horiz-adv-x="278" d="M111 98H90L63 -22Q58 -45 48 -65T12 -100L8 -126Q40 -114 57 -89T82 -32L111 98Z" />
<glyph unicode="-" glyph-name="hyphen" horiz-adv-x="333" d="M59 278L55 258H239L243 278H59Z" />
<glyph unicode="." glyph-name="period" horiz-adv-x="278" d="M68 0H89L111 98H90L68 0Z" />
<glyph unicode="/" glyph-name="slash" horiz-adv-x="333" d="M-6 -16H13L340 731H320L-6 -16Z" />
<glyph unicode="0" glyph-name="zero" horiz-adv-x="556" d="M536 456Q536 507 525 550T488 624T421 674T321 692Q266 692 222 669T145 607T87 519T48 416T25 311T18 216Q18 169 30 128T68 56T132 7T222 -11Q279 -11 324 10T405 68T464 152T505 252T528 357T536
456ZM516 456Q516 413 509 363T488 264T450 168T395 86T319 29T222 8Q176 8 141 24T84 68T50 135T38 216Q38 256 44 305T65 405T102 504T155 589T228 649T321 672Q375 672 412 656T473 611T506 543T516 456Z" />
<glyph unicode="1" glyph-name="one" horiz-adv-x="556" d="M223 0H244L392 680H363Q318 638 269 603T158 552L152 530Q216 545 267 580T364 660L366 658L223 0Z" />
<glyph unicode="2" glyph-name="two" horiz-adv-x="556" d="M438 20H5Q13 65 39 100T104 165T187 220T279 269T369 318T447 374T501 442T522 526Q522 568 507 599T465 651T403 682T328 692Q277 692 235 676T163 631T116 559T95 465H115Q116 511 132 549T175 614T242
657T328 672Q364 672 395 663T451 636T488 591T502 526Q502 475 474 435T404 364T315 310T232 267Q191 246 148 221T70 163T10 91T-18 0H434L438 20Z" />
<glyph unicode="3" glyph-name="three" horiz-adv-x="556" d="M38 230H17Q15 216 14 202T13 170Q13 125 30 91T75 35T143 1T225 -11Q276 -11 321 3T401 44T455 111T475 204Q474 233 465 259T439 306T399 340T345 356V358Q384 361 417 372T474 404T513 455T527
528Q527 570 511 601T468 652T406 682T331 692Q231 692 172 637T98 485H118Q133 573 185 622T331 672Q366 672 397 664T453 639T492 594T507 528Q507 472 481 440T416 393T331 373T243 369L238 350Q276 352 314 347T384 325T435 279T455 204Q455 154 436 117T385
56T312 20T225 8Q186 8 151 18T90 49T49 99T33 170Q33 185 34 200T38 230Z" />
<glyph unicode="4" glyph-name="four" horiz-adv-x="556" d="M4 178H351L314 0H336L373 178H494L497 198H376L476 680H453L8 200L4 178ZM448 643L354 198H33L446 645L448 643Z" />
<glyph unicode="5" glyph-name="five" horiz-adv-x="556" d="M544 660L550 680H193L67 345H95Q127 391 177 415T281 439Q321 439 355 428T414 394T453 340T468 267Q468 214 453 167T407 85T333 29T230 8Q149 8 99 48T49 166Q49 180 49 189T52 213H32Q29 183 29
166Q29 122 44 89T85 34T149 0T230 -11Q290 -11 338 10T419 68T470 157T488 267Q488 313 472 348T428 408T363 446T281 459Q226 459 177 438T100 374L98 376L114 412L207 660H544Z" />
<glyph unicode="6" glyph-name="six" horiz-adv-x="556" d="M473 252Q473 202 458 158T414 80T343 28T248 8Q154 8 104 58T54 202Q54 249 70 291T117 366T189 417T282 436Q322 436 357 424T417 387T458 329T473 252ZM515 514H535Q539 559 526 592T486 647T424
681T348 692Q293 692 249 674T172 624T115 551T78 464Q61 407 48 341T34 210Q34 160 47 119T86 49T152 5T248 -11Q305 -11 350 9T427 64T476 148T493 252Q493 297 478 334T434 399T368 441T282 456Q244 456 210 446T147 416T97 371T63 313H61Q62 318 65 334T74
372T86 417T98 460Q106 483 121 518T166 588T239 647T348 672Q386 672 418 661T474 630T508 581T515 514Z" />
<glyph unicode="7" glyph-name="seven" horiz-adv-x="556" d="M128 680L125 660H528Q384 522 276 356T104 0H126Q190 194 298 355T552 658L558 680H128Z" />
<glyph unicode="8" glyph-name="eight" horiz-adv-x="556" d="M257 -11Q299 -11 340 -1T415 32T470 93T491 186Q491 258 452 302T343 358V360Q357 360 388 367T451 393T507 447T531 536Q531 578 513 607T466 656T399 683T322 692Q277 692 237 683T167 652T119
598T101 517Q101 457 134 420T223 372V370Q178 367 139 354T70 315T24 254T7 170Q7 122 27 88T81 32T160 0T257 -11ZM471 186Q471 145 456 112T413 56T346 21T259 8Q213 8 172 16T99 44T48 94T27 170Q27 218 46 253T98 310T172 344T256 355Q294 355 332 347T401
318T451 266T471 186ZM511 536Q511 495 493 465T446 414T381 385T306 375Q273 375 240 383T180 408T138 452T121 517Q121 560 137 589T180 637T244 664T322 672Q355 672 388 665T449 643T494 601T511 536Z" />
<glyph unicode="9" glyph-name="nine" horiz-adv-x="556" d="M41 166H21Q17 121 30 88T70 33T132 0T208 -11Q264 -11 307 7T384 57T441 129T478 216Q495 273 508 339T522 470Q522 520 509 561T470 631T404 676T308 692Q251 692 206 672T129 616T80 532T63 428Q63
383 78 346T122 281T189 239T274 224Q311 224 345 234T409 263T460 311T496 374L498 372Q496 365 492 348T483 308T471 263T458 220Q453 205 445 184T423 139T390 92T345 50T285 20T208 8Q171 8 138 19T82 50T48 99T41 166ZM502 478Q502 431 486 389T439 314T367
263T274 244Q234 244 199 256T139 293T98 351T83 428Q83 478 98 522T142 600T213 652T308 672Q402 672 452 622T502 478Z" />
<glyph unicode=":" glyph-name="colon" horiz-adv-x="278" d="M68 0H89L111 98H90L68 0ZM155 394H176L198 492H177L155 394Z" />
<glyph unicode=";" glyph-name="semicolon" horiz-adv-x="278" d="M155 394H176L198 492H177L155 394ZM111 98H90L63 -22Q58 -45 48 -65T12 -100L8 -126Q40 -114 57 -89T82 -32L111 98Z" />
<glyph unicode="&lt;" glyph-name="less" horiz-adv-x="600" d="M554 -7V13L64 253L554 493V514L46 265V241L554 -7Z" />
<glyph unicode="=" glyph-name="equal" horiz-adv-x="600" d="M48 146H552V166H48V146ZM48 340H552V360H48V340Z" />
<glyph unicode="&gt;" glyph-name="greater" horiz-adv-x="600" d="M536 253L46 13V-7L554 241V265L46 514V493L536 253Z" />
<glyph unicode="?" glyph-name="question" horiz-adv-x="500" d="M160 0H181L203 98H182L160 0ZM81 495H101Q104 539 117 578T155 647T216 694T302 711Q335 711 365 703T418 677T454 633T468 568Q468 537 461 513T437 468T396 428T336 387Q312 372 292 359T257
330T231 291T211 234L198 181H219L231 231Q238 261 247 280T270 314T302 341T346 370Q375 388 400 406T445 448T476 500T488 568Q488 608 474 638T434 689T375 720T302 731Q250 731 210 713T143 664T100 589T81 495Z" />
<glyph unicode="@" glyph-name="at" horiz-adv-x="800" d="M594 547L570 481H568Q555 521 517 543T431 566Q378 566 334 539T259 468T211 375T194 277Q194 247 204 221T233 175T276 144T330 132Q365 132 401 144T466 195H468Q463 167 480 150T527 132Q563 132
601 154T671 214T723 302T743 411Q743 480 718 536T648 631T545 691T419 712Q345 712 279 685T164 610T86 497T57 353Q57 258 88 189T171 76T287 10T419 -11Q465 -11 510 1T597 37T673 93T732 166H709Q686 133 655 104T587 54T507 20T419 8Q350 8 288 30T179 95T105
203T77 353Q77 424 103 485T175 593T283 665T419 692Q484 692 540 672T636 614T700 525T723 411Q723 356 704 309T657 227T594 172T529 152Q509 152 499 160T487 183T490 217T504 259L615 547H594ZM559 456L488 272Q474 236 456 213T417 176T376 157T334 152Q308
152 286 161T248 188T223 227T214 277Q214 319 229 366T273 453T340 519T427 546Q446 546 466 542T505 527T538 499T559 456Z" />
<glyph unicode="A" glyph-name="A" horiz-adv-x="574" d="M458 235L502 0H522L390 714H370L-76 0H-54L92 235H458ZM455 255H105L374 686H376L455 255Z" />
<glyph unicode="B" glyph-name="B" horiz-adv-x="611" d="M93 382L162 694H427Q455 694 482 689T532 668T568 626T582 555Q582 514 566 482T519 427T446 394T351 382H93ZM144 714L-6 0H307Q364 0 411 14T491 56T542 124T561 217Q561 283 529 324T427 371V373Q457
376 488 388T544 422T586 478T602 555Q602 611 583 642T535 690T476 710T421 714H144ZM17 20L90 362H338Q376 362 412 358T477 339T523 296T541 217Q541 160 519 123T464 62T392 30T319 20H17Z" />
<glyph unicode="C" glyph-name="C" horiz-adv-x="685" d="M648 252H628Q611 195 581 149T510 71T417 21T308 3Q254 3 208 20T127 71T73 155T53 273Q53 356 77 434T148 574T263 673T419 711Q466 711 510 697T588 655T644 589T665 499H685Q685 554 663 597T604 670T519
715T419 731Q325 730 253 690T132 584T58 438T33 273Q33 207 52 154T106 63T193 5T308 -16Q371 -16 426 4T526 59T602 144T648 252Z" />
<glyph unicode="D" glyph-name="D" horiz-adv-x="667" d="M150 714L-6 0H214Q260 0 301 3T380 19T453 54T523 115Q550 145 570 183T605 264T626 349T633 434Q633 503 618 551T577 630T518 678T447 703T372 712T300 714H150ZM18 20L166 694H300Q341 694 380 692T454
680T518 654T568 609T601 537T613 434Q613 387 605 342T581 257T547 184T505 126Q472 91 441 70T375 38T301 24T214 20H18Z" />
<glyph unicode="E" glyph-name="E" horiz-adv-x="519" d="M465 20H14L87 362H492L496 382H92L159 694H592L596 714H143L-9 0H460L465 20Z" />
<glyph unicode="F" glyph-name="F" horiz-adv-x="481" d="M465 362L468 382H92L159 694H575L579 714H143L-9 0H10L88 362H465Z" />
<glyph unicode="G" glyph-name="G" horiz-adv-x="722" d="M608 99L587 0H607L678 334H383L379 314H656Q641 250 614 194T547 95T451 29T322 3Q267 5 217 20T128 75Q109 94 95 118T72 170T58 225T53 279Q53 361 77 439T148 578T264 675T424 711Q528 713 593 661T670
500H690Q685 557 664 600T608 673T527 717T424 731Q329 732 256 695T134 594T59 449T33 279Q32 222 49 169T104 70Q146 21 202 4T322 -16Q437 -14 511 39T631 198L633 196L608 99Z" />
<glyph unicode="H" glyph-name="H" horiz-adv-x="648" d="M574 382H95L166 714H146L-6 0H13L91 362H570L493 0H513L666 714H646L574 382Z" />
<glyph unicode="I" glyph-name="I" horiz-adv-x="148" d="M-6 0H13L166 714H146L-6 0Z" />
<glyph unicode="J" glyph-name="J" horiz-adv-x="463" d="M481 714H460L349 194Q340 154 328 119T294 58T242 18T163 3Q88 3 44 37T0 144Q0 160 2 179T8 220H-11Q-16 203 -18 185T-20 144Q-20 72 24 28T163 -16Q217 -16 252 1T311 47T347 112T368 185L481 714Z" />
<glyph unicode="K" glyph-name="K" horiz-adv-x="593" d="M69 262L252 395L536 0H560L268 407L684 714H651L75 290L165 714H145L-6 0H13L69 262Z" />
<glyph unicode="L" glyph-name="L" horiz-adv-x="481" d="M431 20H18L167 714H146L-6 0H426L431 20Z" />
<glyph unicode="M" glyph-name="M" horiz-adv-x="796" d="M144 714L-6 0H14L159 685H161L315 0H341L785 685L787 683L641 0H662L814 714H782L332 22H330L174 714H144Z" />
<glyph unicode="N" glyph-name="N" horiz-adv-x="667" d="M505 0H532L685 714H664L518 23H516L172 714H145L-6 0H14L159 691H161L505 0Z" />
<glyph unicode="O" glyph-name="O" horiz-adv-x="722" d="M677 434Q677 356 654 279T585 140T472 41T319 3Q256 3 207 23T123 79T71 167T53 280Q53 359 76 436T145 574T257 673T411 711Q476 711 525 692T609 636T660 548T677 434ZM697 434Q697 502 678 557T622
650T532 710T411 731Q319 731 249 692T130 589T58 445T33 280Q33 212 52 158T107 65T196 5T319 -16Q410 -16 480 23T599 125T672 269T697 434Z" />
<glyph unicode="P" glyph-name="P" horiz-adv-x="574" d="M9 0L79 325H325Q409 325 461 347T543 403T582 475T593 547Q593 621 549 667T411 714H141L-11 0H9ZM82 345L157 694H407Q434 694 463 689T517 667T557 623T573 547Q573 497 556 459T506 396T430 358T331 345H82Z" />
<glyph unicode="Q" glyph-name="Q" horiz-adv-x="722" d="M390 153L496 57Q459 31 415 17T319 3Q256 3 207 23T123 79T71 167T53 280Q53 359 76 436T145 574T257 673T411 711Q476 711 525 692T609 636T660 548T677 434Q677 382 667 330T636 230T585 141T514 69L405
168L390 153ZM512 43L616 -49L630 -34L530 55Q571 86 602 128T654 221T686 325T697 434Q697 502 678 557T622 650T532 710T411 731Q319 731 249 692T130 589T58 445T33 280Q33 212 52 158T107 65T196 5T319 -16Q432 -16 512 43Z" />
<glyph unicode="R" glyph-name="R" horiz-adv-x="593" d="M142 714L-6 0H13L83 335H328Q351 335 377 330T426 309T463 265T477 191Q475 161 474 133T472 76Q472 56 474 38T483 0H503Q497 18 495 37T493 75Q494 105 495 134T497 191Q498 260 471 295T389 339V341Q434
342 471 356T536 396T580 460T597 546Q598 597 581 630T538 681T479 707T417 714H142ZM89 355L160 694H410Q434 694 463 690T518 670T561 625T577 546Q576 480 549 442T482 385T401 360T328 355H89Z" />
<glyph unicode="S" glyph-name="S" horiz-adv-x="611" d="M27 237H7Q1 172 19 125T75 46T163 -1T275 -16Q312 -16 356 -7T438 25T502 89T528 192Q528 235 511 264T465 313T400 346T325 370T251 393T187 422T142 466T126 531Q127 579 147 613T198 669T270 701T351
711Q401 711 443 701T516 666T561 604T573 510H593Q597 570 581 612T532 680T453 719T351 731Q305 731 261 720T183 684T128 622T106 531Q106 488 123 459T169 411T233 378T307 354T381 332T445 302T490 258T508 192Q508 133 483 96T422 39T346 11T275 3Q217 3
169 18T88 64T38 137T27 237Z" />
<glyph unicode="T" glyph-name="T" horiz-adv-x="500" d="M60 694H318L170 0H191L339 694H597L601 714H64L60 694Z" />
<glyph unicode="U" glyph-name="U" horiz-adv-x="648" d="M161 714H140L46 284Q41 256 38 235T35 185Q35 133 54 95T105 32T179 -4T270 -16Q327 -16 370 -3T444 31T497 80T533 138T556 198T571 253L671 714H650L548 247Q530 162 496 113T423 40T343 9T270 3Q224
2 185 13T117 48T72 105T55 185Q55 203 57 219T62 258L161 714Z" />
<glyph unicode="V" glyph-name="V" horiz-adv-x="556" d="M193 0H221L643 714H621L211 20H209L87 714H67L193 0Z" />
<glyph unicode="W" glyph-name="W" horiz-adv-x="889" d="M139 0H165L517 696H519L582 0H608L971 714H948L601 26H599L537 714H505L158 26H156L94 714H74L139 0Z" />
<glyph unicode="X" glyph-name="X" horiz-adv-x="519" d="M449 0H472L280 365L611 714H585L271 383L96 714H73L255 369L-93 0H-67L264 351L449 0Z" />
<glyph unicode="Y" glyph-name="Y" horiz-adv-x="519" d="M253 322L69 714H46L240 303L175 0H196L261 303L627 714H602L253 322Z" />
<glyph unicode="Z" glyph-name="Z" horiz-adv-x="500" d="M457 20H-51L575 690L579 714H82L77 694H552L-74 24L-78 0H454L457 20Z" />
<glyph unicode="[" glyph-name="bracketleft" horiz-adv-x="222" d="M300 731H180L-19 -176H100L105 -156H6L197 711H295L300 731Z" />
<glyph unicode="\" glyph-name="backslash" horiz-adv-x="333" d="M320 -16H340L13 731H-6L320 -16Z" />
<glyph unicode="]" glyph-name="bracketright" horiz-adv-x="222" d="M-99 -176H20L216 731H96L91 711H191L3 -156H-94L-99 -176Z" />
<glyph unicode="^" glyph-name="asciicircum" horiz-adv-x="600" d="M541 227L310 680H290L59 227H79L300 660L521 227H541Z" />
<glyph unicode="_" glyph-name="underscore" horiz-adv-x="500" d="M0 -124H500V-74H0V-124Z" />
<glyph unicode="`" glyph-name="grave" horiz-adv-x="130" d="M83 731H58L170 587H195L83 731Z" />
<glyph unicode="a" glyph-name="a" horiz-adv-x="481" d="M59 365H79Q96 432 143 469T269 506Q299 506 324 501T367 484T395 451T406 398Q406 362 397 340T370 305T329 288T279 283Q261 283 243 283T204 281Q161 281 121 275T50 250T0 200T-19 115Q-19 81 -7 57T27
18T75 -4T133 -11Q208 -11 257 17T343 105H345Q342 92 339 81T335 49Q335 -3 387 -3Q405 -3 421 0V20Q408 16 386 16Q374 16 365 22T355 49Q355 60 356 67T359 84L418 335Q421 350 423 365T426 398Q426 465 384 495T269 526Q188 525 134 488T59 365ZM386 290L365
201Q354 159 335 124T286 63T219 23T133 8Q106 8 82 14T40 34T11 67T0 115Q0 162 18 190T66 234T131 254T205 262Q227 262 254 262T306 266T353 275T384 292L386 290Z" />
<glyph unicode="b" glyph-name="b" horiz-adv-x="537" d="M91 389L160 714H139L-12 0H8L40 148H42Q48 77 95 33T218 -11Q286 -11 336 19T419 98T468 207T485 328Q485 368 474 404T441 467T385 510T306 526Q270 526 238 516T178 486T130 442T93 387L91 389ZM465
328Q465 274 450 218T404 115T327 38T218 8Q179 8 148 22T96 61T65 121T55 198Q56 249 73 303T122 403T200 477T306 506Q345 506 374 493T424 455T454 399T465 328Z" />
<glyph unicode="c" glyph-name="c" horiz-adv-x="500" d="M443 359H463Q463 440 414 483T280 526Q215 526 165 498T81 422T30 314T12 191Q12 97 62 43T209 -11Q248 -11 283 1T348 36T399 91T432 165H412Q383 84 331 47T209 8Q121 8 77 57T32 191Q32 247 47 303T94
405T171 478T280 506Q355 506 399 469T443 359Z" />
<glyph unicode="d" glyph-name="d" horiz-adv-x="537" d="M392 76L376 0H397L551 714H530L468 429L456 364H454Q454 442 405 484T277 526Q213 526 163 494T77 411T24 300T6 183Q6 93 53 41T190 -11Q231 -11 264 0T325 32T372 81T406 141L408 139L392 76ZM440 336Q439
282 423 224T376 118T298 39T189 8Q149 8 118 21T67 57T37 113T26 183Q26 236 42 293T90 397T169 475T277 506Q358 506 399 460T440 336Z" />
<glyph unicode="e" glyph-name="e" horiz-adv-x="500" d="M433 273H31Q40 321 59 363T109 437T180 487T272 506Q314 506 345 492T397 453T428 395T438 326Q438 311 437 299T433 273ZM27 253H454Q456 274 457 290T458 326Q458 368 446 404T411 468T353 510T272
526Q205 526 155 498T71 423T21 318T4 199Q4 155 15 117T51 50T111 5T195 -11Q289 -11 346 35T427 169H406Q383 85 329 47T194 8Q170 8 141 15T85 43T42 101T24 198Q24 231 27 253Z" />
<glyph unicode="f" glyph-name="f" horiz-adv-x="204" d="M114 514H24L19 494H109L0 0H21L130 494H240L245 514H135L146 559Q151 576 155 599T170 643T200 679T254 694H279Q284 694 290 694Q296 694 301 693L305 713Q291 713 279 713T254 714Q214 714 191 697T154
656T136 605T126 559L114 514Z" />
<glyph unicode="g" glyph-name="g" horiz-adv-x="519" d="M499 514H479L463 436L449 361H447Q440 442 394 484T275 526Q211 526 163 500T81 431T32 337T15 233Q15 188 27 150T63 84T122 41T205 25Q268 25 319 57T397 143L399 141Q387 79 373 23T333 -75T264 -143T149
-168Q115 -168 87 -160T38 -135T8 -92T0 -29H-19Q-23 -110 23 -149T149 -188Q255 -188 313 -134T397 38L499 514ZM433 330Q433 281 418 230T374 138T303 71T205 45Q161 45 129 59T76 99T45 159T35 233Q35 284 51 333T97 420T169 482T263 506Q308 506 339 494T391
459T421 404T433 330Z" />
<glyph unicode="h" glyph-name="h" horiz-adv-x="500" d="M135 714L-18 0H2L53 237Q63 285 81 333T128 420T198 482T297 506Q354 506 390 476T428 386Q428 367 424 348T416 310L351 0H372L436 305Q440 325 444 345T448 386Q448 455 406 490T297 526Q222 526 173
490T89 390L87 392L100 450L156 714H135Z" />
<glyph unicode="i" glyph-name="i" horiz-adv-x="130" d="M129 714L106 610H128L151 714H129ZM1 0L111 514H89L-20 0H1Z" />
<glyph unicode="j" glyph-name="j" horiz-adv-x="130" d="M129 714L106 610H128L151 714H129ZM-8 -42L111 514H89L-28 -34Q-33 -54 -38 -76T-54 -116T-81 -146T-125 -158Q-129 -157 -133 -157Q-137 -157 -142 -157Q-147 -157 -152 -157Q-158 -157 -163 -156L-166
-174Q-156 -175 -147 -175T-125 -176Q-93 -176 -73 -165T-41 -136T-21 -93T-8 -42Z" />
<glyph unicode="k" glyph-name="k" horiz-adv-x="444" d="M36 202L162 289L366 0H393L179 300L485 514H451L43 231L147 714H126L-28 0H-7L36 202Z" />
<glyph unicode="l" glyph-name="l" horiz-adv-x="130" d="M-20 0H1L151 714H129L-20 0Z" />
<glyph unicode="m" glyph-name="m" horiz-adv-x="778" d="M88 514L-22 0H-1L59 279Q66 316 84 356T128 429T190 484T266 506Q317 506 347 475T377 393Q377 380 376 368T372 344L299 0H320L384 292Q391 326 405 363T444 432T501 485T580 506Q637 506 669 475T702
390Q702 370 700 357T693 327L621 0H642L710 308Q715 329 718 350T722 390Q722 456 683 491T580 526Q547 526 518 515T466 485T426 441T399 385L397 387Q398 417 390 442T366 486T324 515T266 526Q235 526 208 516T159 487T118 446T87 396H85L110 514H88Z" />
<glyph unicode="n" glyph-name="n" horiz-adv-x="500" d="M92 514L-18 0H2L53 237Q63 285 81 333T128 420T198 482T297 506Q354 506 390 476T428 386Q428 367 424 348T416 310L351 0H372L436 305Q440 325 444 345T448 386Q448 455 406 490T297 526Q222 526 173
490T89 390L87 392L100 450L113 514H92Z" />
<glyph unicode="o" glyph-name="o" horiz-adv-x="519" d="M26 191Q26 247 41 303T88 405T165 478T274 506Q355 506 403 456T452 315Q452 263 436 209T389 110T312 37T203 8Q115 8 71 57T26 191ZM6 191Q6 97 56 43T203 -11Q269 -11 319 18T403 95T454 200T472 315Q472
362 459 401T420 467T358 510T274 526Q209 526 159 498T75 422T24 314T6 191Z" />
<glyph unicode="p" glyph-name="p" horiz-adv-x="537" d="M101 514L-44 -176H-23L42 135H44Q49 66 95 28T220 -11Q283 -11 333 18T418 95T471 201T490 317Q490 360 480 398T447 464T391 509T308 526Q268 526 236 514T177 482T131 435T95 378H93L122 514H101ZM470
313Q470 261 453 207T403 109T324 36T220 8Q139 8 98 52T57 173Q57 225 73 283T121 391T200 473T308 506Q352 506 383 491T433 450T461 388T470 313Z" />
<glyph unicode="q" glyph-name="q" horiz-adv-x="537" d="M442 327Q442 275 427 219T381 115T306 38T202 8Q165 8 134 20T81 55T47 109T35 177Q35 231 49 289T94 396T170 475T278 506Q319 506 349 492T400 453T431 396T442 327ZM363 -176L513 514H492L468 404L458
351H456Q455 390 442 422T405 478T350 513T278 526Q211 526 161 493T79 408T31 295T15 177Q15 135 28 101T66 42T125 3T201 -11Q276 -11 326 26T407 126L409 124L386 26L342 -176H363Z" />
<glyph unicode="r" glyph-name="r" horiz-adv-x="259" d="M-22 0H-1L53 258Q61 291 69 315T88 361Q96 378 112 402T151 448T203 486T269 502Q294 502 305 498L309 518Q294 522 268 522Q205 522 159 483T81 383L79 385L94 448L108 514H86L-22 0Z" />
<glyph unicode="s" glyph-name="s" horiz-adv-x="463" d="M392 360H412Q417 407 406 438T372 489T315 517T242 526Q209 526 178 518T122 493T82 451T67 389Q67 353 82 331T121 293T173 269T228 249Q250 240 272 232T312 211T341 180T352 135Q352 100 337 76T298
36T244 15T183 8Q140 8 107 17T53 45T22 96T19 174H-1Q-1 164 -2 155T-3 136Q-3 93 11 65T51 20T111 -4T183 -11Q219 -11 253 -4T313 21T356 66T372 135Q372 172 356 195T315 233T261 257T206 277Q184 286 163 295T125 316T98 345T87 389Q87 422 101 444T138 480T188
500T242 506Q279 506 309 498T359 472T388 427T392 360Z" />
<glyph unicode="t" glyph-name="t" horiz-adv-x="241" d="M156 676L122 514H25L21 494H118L37 113Q35 98 32 84T29 54Q29 36 35 25T53 7T78 -1T107 -3Q121 -3 134 -2T162 0L166 20Q149 16 118 16Q107 16 95 16T72 20T56 33T49 60Q50 75 53 90T59 119L139 494H251L255
514H143L177 676H156Z" />
<glyph unicode="u" glyph-name="u" horiz-adv-x="500" d="M368 0L479 514H457L407 277Q397 229 379 181T332 94T262 32T163 8Q106 8 70 38T32 128Q32 147 36 166T44 204L109 514H88L24 209Q20 189 16 169T12 128Q12 59 54 24T163 -11Q238 -11 287 25T371 124L373
122L360 64L347 0H368Z" />
<glyph unicode="v" glyph-name="v" horiz-adv-x="407" d="M115 0H142L438 514H415L132 20H130L42 514H21L115 0Z" />
<glyph unicode="w" glyph-name="w" horiz-adv-x="685" d="M448 0L721 514H698L437 20H435L379 514H349L87 20H85L30 514H9L68 0H98L360 494H362L418 0H448Z" />
<glyph unicode="x" glyph-name="x" horiz-adv-x="407" d="M-50 0L190 252L329 0H352L206 265L438 514H412L194 282L68 514H45L178 268L-77 0H-50Z" />
<glyph unicode="y" glyph-name="y" horiz-adv-x="407" d="M138 26L43 514H21L121 0L77 -77Q62 -101 49 -117T21 -142T-14 -154T-63 -156L-66 -176H-49Q-44 -176 -40 -176Q-36 -176 -32 -175Q-3 -174 17 -166T52 -145T79 -112T107 -68L444 514H419L138 26Z" />
<glyph unicode="z" glyph-name="z" horiz-adv-x="407" d="M331 20H-35L438 491L444 514H60L56 494H411L-58 27L-64 0H326L331 20Z" />
<glyph unicode="{" glyph-name="braceleft" horiz-adv-x="333" d="M105 -176H151L155 -156H106Q86 -156 76 -150T66 -120Q66 -106 68 -90T74 -55L109 114Q113 132 115 147T116 177Q116 215 104 238T72 276Q95 283 113 299T144 337T166 387T181 442L218 615Q229
669 244 690T291 711H336L340 731H291Q251 731 231 705T197 619L162 448Q156 415 146 387T121 338T90 305T53 291L49 271Q76 256 86 229T96 172Q95 158 94 144T89 117L54 -52Q49 -79 48 -95T46 -120Q46 -149 59 -162T105 -176Z" />
<glyph unicode="|" glyph-name="bar" horiz-adv-x="222" d="M101 -213H121V786H101V-213Z" />
<glyph unicode="}" glyph-name="braceright" horiz-adv-x="333" d="M-65 -156L-69 -176H-19Q23 -176 43 -152T71 -86L114 111Q120 137 130 163T153 210T183 247T217 268L222 290Q200 294 188 317T176 378Q176 394 178 410T183 445L218 617Q222 636 224 649T226
673Q226 701 211 716T167 731H119L115 711H165Q206 711 206 673Q206 657 204 643T199 622L163 450Q160 433 158 415T156 378Q156 344 166 317T200 280Q161 264 134 218T94 114L51 -84Q43 -123 27 -139T-17 -156H-65Z" />
<glyph unicode="~" glyph-name="asciitilde" horiz-adv-x="600" d="M78 216L93 203Q110 234 131 255T189 277Q223 277 251 266T303 242Q329 229 354 219T405 209Q427 209 444 216T475 236T500 262T522 291L506 303Q486 275 462 252T405 229Q384 229 358 239T304
264Q276 278 247 287T189 297Q167 297 150 290T119 271T95 245T78 216Z" />
</font>
</defs>
</svg>
