<?xml version="1.0" standalone="no"?> <!DOCTYPE svg PUBLIC "-//W3C//DTD SVG 1.0//EN" "http://www.w3.org/TR/2001/REC-SVG-20010904/DTD/svg10.dtd" > <svg xmlns="http://www.w3.org/2000/svg" width="100%" height="100%">
<defs >
<font id="helveticaneueitalic" horiz-adv-x="444" ><font-face
    font-family="Helvetica Neue"
    units-per-em="1000"
    panose-1="2 0 5 3 0 0 0 9 0 4"
    ascent="957"
    descent="-213"
    alphabetic="0" />
<missing-glyph horiz-adv-x="500" d="M442 8H58V504H442V8ZM50 512V0H450V512H50Z" />
<glyph unicode=" " glyph-name="space" horiz-adv-x="278" />
<glyph unicode="!" glyph-name="exclam" horiz-adv-x="259" d="M205 491L252 714H159L112 491L69 183H115L205 491ZM24 111L0 0H111L135 111H24Z" />
<glyph unicode="&quot;" glyph-name="quotedbl" horiz-adv-x="426" d="M286 714V456H354V714H286ZM146 714V456H214V714H146Z" />
<glyph unicode="#" glyph-name="numbersign" horiz-adv-x="556" d="M231 424H353L332 274H210L231 424ZM131 206L102 0H171L200 206H323L294 0H363L392 206H485L494 274H401L422 424H513L522 492H431L460 697H391L362 492H240L269 697H200L171 492H69L60 424H161L140
274H43L34 206H131Z" />
<glyph unicode="$" glyph-name="dollar" horiz-adv-x="556" d="M172 -11L154 -96H207L224 -16Q274 -23 325 -12T419 27T489 101T516 206Q516 343 364 386L310 405L359 651Q402 637 425 602T446 503H536Q539 549 528 586T494 650T440 696T374 725L388 794H335L322
731Q273 736 227 723T144 681T87 612T65 519Q65 476 79 446T117 394T174 359T242 334L188 65Q73 89 80 234H-9Q-14 131 31 68T172 -11ZM239 58L293 322Q319 313 343 306T385 286T415 254T426 197Q426 155 404 126T352 80T291 58T239 58ZM307 656L259 418L246 424Q210
436 183 461T155 529Q155 566 170 590T208 629T258 650T307 656Z" />
<glyph unicode="%" glyph-name="percent" horiz-adv-x="926" d="M79 454Q79 385 117 347T223 309Q273 309 308 333T366 394T399 476T410 564Q410 709 264 709Q216 709 181 685T124 622T90 540T79 454ZM581 137Q581 163 588 196T609 260T647 312T703 333Q776 333
776 248Q776 217 770 181T751 114T715 63T660 43Q615 43 598 67T581 137ZM513 133Q513 64 551 27T657 -11Q707 -11 742 12T800 73T833 155T844 243Q844 388 698 388Q650 388 615 364T558 301T524 219T513 133ZM644 725L209 -27H273L708 725H644ZM147 458Q147 484
154 517T175 581T213 633T269 654Q342 654 342 569Q342 538 336 502T317 435T281 384T226 364Q181 364 164 388T147 458Z" />
<glyph unicode="&amp;" glyph-name="ampersand" horiz-adv-x="630" d="M246 551Q246 593 272 616T338 639Q371 639 394 619T417 565Q417 542 405 523T373 487T332 458T291 434Q274 462 260 489T246 551ZM424 74L468 0H565L480 130Q516 172 541 219T583 337H501Q496
300 478 261T438 192L326 376Q356 392 387 411T443 455T485 510T502 578Q502 612 488 637T452 680T400 705T339 714Q300 714 268 703T212 671T175 621T161 556Q161 508 180 470T220 398Q185 380 150 360T86 313T39 252T21 173Q21 129 36 95T79 38T142 2T220 -11Q283
-11 332 12T424 74ZM257 338L384 130Q346 98 312 81T229 63Q205 63 183 70T144 92T116 125T106 169Q106 202 120 227T156 273T205 309T257 338Z" />
<glyph unicode="&apos;" glyph-name="quotesingle" horiz-adv-x="278" d="M142 714V456H210V714H142Z" />
<glyph unicode="(" glyph-name="parenleft" horiz-adv-x="259" d="M116 -197H172Q144 -116 132 -34T120 134Q120 221 137 300T187 454T264 597T363 731H293Q238 669 191 606T109 474T55 330T35 170Q35 127 41 79T57 -18T83 -112T116 -197Z" />
<glyph unicode=")" glyph-name="parenright" horiz-adv-x="259" d="M-116 -197H-46Q8 -134 55 -71T136 59T191 201T211 362Q211 406 205 454T188 550T163 644T130 731H74Q102 650 114 567T126 398Q126 312 109 232T60 78T-17 -65T-116 -197Z" />
<glyph unicode="*" glyph-name="asterisk" horiz-adv-x="352" d="M247 601L272 714H218L196 609L100 658L75 612L170 564L93 480L130 443L208 530L255 427L304 450L255 550L362 564L357 612L247 601Z" />
<glyph unicode="+" glyph-name="plus" horiz-adv-x="600" d="M334 287V506H266V287H48V219H266V0H334V219H552V287H334Z" />
<glyph unicode="," glyph-name="comma" horiz-adv-x="278" d="M39 111L15 0H71Q66 -17 61 -33T48 -62T28 -85T-5 -98L-15 -146Q37 -142 65 -117T109 -55T132 26T150 111H39Z" />
<glyph unicode="-" glyph-name="hyphen" horiz-adv-x="389" d="M42 318L26 238H316L332 318H42Z" />
<glyph unicode="." glyph-name="period" horiz-adv-x="278" d="M39 111L15 0H126L150 111H39Z" />
<glyph unicode="/" glyph-name="slash" horiz-adv-x="333" d="M278 731L-17 -16H55L351 731H278Z" />
<glyph unicode="0" glyph-name="zero" horiz-adv-x="556" d="M115 249Q115 274 120 312T136 393T164 479T204 556T259 612T328 634Q359 634 379 624T411 596T428 555T435 508T437 461T436 417Q436 402 432 370T418 298T393 217T354 141T300 85T230 63Q167 63 141
113T115 249ZM25 263Q25 205 34 155T67 68T127 10T221 -11Q280 -11 325 13T404 77T461 165T499 265T519 362T526 441Q526 583 477 646T335 709Q280 709 235 687T156 629T97 546T56 450T33 352T25 263Z" />
<glyph unicode="1" glyph-name="one" horiz-adv-x="556" d="M282 0L433 709H367Q351 679 326 656T269 618T205 595T138 587L124 519Q173 519 216 523T307 539L192 0H282Z" />
<glyph unicode="2" glyph-name="two" horiz-adv-x="556" d="M68 468H158Q160 501 171 531T201 584T249 620T313 634Q368 634 400 603T432 515Q432 488 425 467T406 429T376 396T340 365Q305 339 267 317T192 272T121 224T61 167T17 95T-5 0H446L462 75H93Q100
94 113 111T141 144T174 173T209 197Q239 216 274 235T344 276T411 322T467 376T507 441T522 520Q522 564 507 599T466 658T403 696T323 709Q266 709 221 692T144 644T93 568T68 468Z" />
<glyph unicode="3" glyph-name="three" horiz-adv-x="556" d="M229 404L214 336Q246 336 277 333T334 318T374 283T390 219Q390 183 378 154T344 105T292 74T226 63Q184 63 157 76T115 112T95 162T91 219H1Q0 100 59 45T224 -11Q290 -11 338 11T417 68T464 144T480
223Q480 271 460 309T388 370Q412 377 435 391T475 427T504 474T515 532Q515 622 460 665T310 709Q253 709 211 691T140 643T94 574T71 490H161Q170 565 207 599T305 634Q327 634 348 631T387 617T414 587T425 536Q425 490 407 463T361 423T298 406T229 404Z" />
<glyph unicode="4" glyph-name="four" horiz-adv-x="556" d="M307 166L271 0H356L392 166H486L501 241H407L505 709H433L13 250L-3 166H307ZM94 241L387 562H389L322 241H94Z" />
<glyph unicode="5" glyph-name="five" horiz-adv-x="556" d="M508 622L523 697H164L54 323H130Q148 355 183 373T256 392Q325 392 361 355T397 249Q397 211 386 177T353 118T299 78T225 63Q97 63 97 190H7Q7 93 65 41T220 -11Q275 -11 320 4T407 55Q449 93 468
144T487 253Q487 298 474 337T436 405T373 450T288 467Q255 467 222 458T163 428L161 430L217 622H508Z" />
<glyph unicode="6" glyph-name="six" horiz-adv-x="556" d="M455 525H545Q543 612 495 660T359 709Q254 709 191 658T89 518Q75 487 64 451T45 377T33 301T29 227Q29 176 41 132T80 57T146 7T242 -11Q301 -11 347 8T427 63T477 145T495 248Q495 292 481 329T440
395T376 440T295 456Q250 456 208 439T140 385H138Q149 424 164 468T202 549T260 610T345 634Q402 634 428 607T455 525ZM405 244Q405 209 396 177T367 119T318 78T250 63Q183 63 151 103T119 206Q119 242 129 273T159 329T208 367T275 381Q338 381 371 343T405
244Z" />
<glyph unicode="7" glyph-name="seven" horiz-adv-x="556" d="M564 626L576 697H119L102 622H471Q342 486 247 331T97 0H194Q219 79 257 165T343 334T447 493T564 626Z" />
<glyph unicode="8" glyph-name="eight" horiz-adv-x="556" d="M104 519Q104 477 129 441T192 388V386Q114 372 68 321T22 189Q22 137 41 100T92 38T166 1T255 -11Q302 -11 344 4T420 47T472 116T492 205Q492 260 468 305T392 372V374Q449 387 484 430T519 533Q519
575 503 607T459 662T395 697T320 709Q277 709 238 697T169 660T122 601T104 519ZM249 63Q189 63 151 94T112 190Q112 262 156 299T271 336Q334 336 368 301T402 208Q402 139 359 101T249 63ZM194 516Q194 570 228 602T316 634Q370 634 399 607T429 526Q429 475
397 443T314 411Q263 411 229 435T194 516Z" />
<glyph unicode="9" glyph-name="nine" horiz-adv-x="556" d="M94 169H4Q3 123 16 89T55 33T117 0T198 -11Q251 -11 291 2T362 41T416 102T460 184Q488 248 503 324T519 471Q519 524 506 568T466 643T398 692T301 709Q245 709 200 689T122 632T72 549T54 447Q54
404 68 366T109 300T172 256T253 239Q298 239 341 255T409 309L411 307Q399 268 383 225T343 146T283 87T197 63Q143 63 119 90T94 169ZM274 314Q210 314 177 352T144 451Q144 483 153 515T181 574T227 617T292 634Q361 634 395 595T429 489Q429 454 419 422T390
366T341 328T274 314Z" />
<glyph unicode=":" glyph-name="colon" horiz-adv-x="278" d="M211 406L234 517H122L99 406H211ZM37 111L15 0H127L150 111H37Z" />
<glyph unicode=";" glyph-name="semicolon" horiz-adv-x="278" d="M210 406L234 517H123L99 406H210ZM39 111L15 0H71Q66 -17 61 -33T48 -62T28 -85T-5 -98L-15 -146Q37 -142 65 -117T109 -55T132 26T150 111H39Z" />
<glyph unicode="&lt;" glyph-name="less" horiz-adv-x="600" d="M554 446V514L46 284V222L554 -7V60L129 253L554 446Z" />
<glyph unicode="=" glyph-name="equal" horiz-adv-x="600" d="M48 186V118H552V186H48ZM552 320V388H48V320H552Z" />
<glyph unicode="&gt;" glyph-name="greater" horiz-adv-x="600" d="M46 60V-7L554 222V284L46 514V446L471 253L46 60Z" />
<glyph unicode="?" glyph-name="question" horiz-adv-x="556" d="M169 111L145 0H256L280 111H169ZM86 488H171Q174 521 186 550T218 600T266 634T330 647Q381 647 413 622T445 542Q445 518 437 498T416 461T385 429T350 402Q315 378 290 357T246 312Q223 283
213 251T196 183H279L283 205Q291 243 313 269T363 317T421 360T476 407T518 470T535 557Q535 599 517 630T469 682T403 712T328 722Q277 722 234 705T159 656T108 581T86 488Z" />
<glyph unicode="@" glyph-name="at" horiz-adv-x="800" d="M534 270L618 554H555L532 491Q515 536 485 554T420 573Q367 573 324 548T250 483T202 392T185 289Q185 256 195 227T224 177T269 144T328 131Q365 131 397 151T452 198H455Q457 165 475 149T519 133Q554
133 595 154T671 213T729 304T753 423Q753 491 726 547T653 644T544 708T413 731Q337 731 270 702T152 623T72 505T42 360Q42 280 71 212T150 93T269 13T417 -16Q465 -16 511 -5T597 29T672 84T730 159H667Q624 104 558 71T419 38Q356 38 300 62T202 129T135 230T110
355Q110 421 133 479T198 581T294 650T414 676Q467 676 515 658T602 607T662 525T685 418Q685 378 672 337T639 263T595 209T547 188Q523 188 523 219Q523 230 526 243T534 270ZM420 505Q436 505 450 497T476 477T494 447T501 412Q501 381 489 344T456 275T407
221T346 199Q308 199 284 226T260 296Q260 329 272 365T305 433T355 484T420 505Z" />
<glyph unicode="A" glyph-name="A" horiz-adv-x="667" d="M375 714L-54 0H51L176 215H477L510 0H608L479 714H375ZM219 295L410 630H412L465 295H219Z" />
<glyph unicode="B" glyph-name="B" horiz-adv-x="685" d="M183 407L231 634H407Q429 634 453 632T499 620T533 593T547 543Q547 407 395 407H183ZM156 714L7 0H360Q413 0 459 15T539 59T593 129T613 221Q613 278 584 316T506 369V371Q538 376 563 392T605 432T632
484T642 543Q642 624 595 669T443 714H156ZM115 80L167 327H371Q400 327 426 323T473 308T506 276T518 221Q518 172 498 144T449 102T392 84T345 80H115Z" />
<glyph unicode="C" glyph-name="C" horiz-adv-x="722" d="M660 241H565Q542 156 487 110T344 63Q290 63 251 80T185 127T146 201T133 296Q133 361 151 424T207 538T299 619T430 651Q508 651 557 610T607 484H702Q702 546 681 592T624 669T538 715T430 731Q339
731 266 696T143 600T65 462T38 296Q38 147 117 66T344 -16Q476 -16 554 52T660 241Z" />
<glyph unicode="D" glyph-name="D" horiz-adv-x="704" d="M117 80L234 634H386Q445 634 483 617T544 572T574 507T583 431Q583 366 565 303T509 191T415 111T282 80H117ZM158 714L7 0H281Q370 0 443 31T568 119T649 258T678 441Q678 568 610 641T408 714H158Z" />
<glyph unicode="E" glyph-name="E" horiz-adv-x="611" d="M158 714L7 0H504L522 80H120L172 327H543L559 407H189L237 634H634L650 714H158Z" />
<glyph unicode="F" glyph-name="F" horiz-adv-x="574" d="M156 714L7 0H102L170 327H500L517 407H187L234 634H609L626 714H156Z" />
<glyph unicode="G" glyph-name="G" horiz-adv-x="759" d="M557 71L563 0H623L701 376H390L374 296H602Q589 244 569 201T517 128T444 80T344 63Q290 63 251 80T185 127T146 201T133 296Q133 361 151 424T207 538T299 619T430 651Q469 651 504 642T565 613T606
563T622 492H717Q717 554 695 599T633 673T542 717T430 731Q339 731 266 696T143 600T65 462T38 296Q38 147 117 66T344 -16Q402 -16 458 5T557 71Z" />
<glyph unicode="H" glyph-name="H" horiz-adv-x="722" d="M157 714L7 0H102L171 327H545L476 0H571L721 714H626L562 407H188L253 714H157Z" />
<glyph unicode="I" glyph-name="I" horiz-adv-x="259" d="M157 714L7 0H102L252 714H157Z" />
<glyph unicode="J" glyph-name="J" horiz-adv-x="519" d="M412 176L525 714H431L327 225Q321 196 313 167T289 115T251 78T191 63Q142 63 114 86T86 160Q87 179 89 197T96 234H0Q-4 205 -6 179T-8 135Q-8 98 6 70T47 22T109 -6T189 -16Q243 -16 280 -4T344 33T386
94T412 176Z" />
<glyph unicode="K" glyph-name="K" horiz-adv-x="667" d="M158 714L7 0H102L153 241L296 362L491 0H596L367 420L711 714H584L180 360L178 362L253 714H158Z" />
<glyph unicode="L" glyph-name="L" horiz-adv-x="556" d="M157 714L7 0H480L497 80H120L252 714H157Z" />
<glyph unicode="M" glyph-name="M" horiz-adv-x="870" d="M157 714L7 0H98L223 625H225L318 0H409L773 625H775L629 0H720L871 714H739L386 100H384L289 714H157Z" />
<glyph unicode="N" glyph-name="N" horiz-adv-x="722" d="M158 714L7 0H99L220 587H222L475 0H577L728 714H636L517 123H515L260 714H158Z" />
<glyph unicode="O" glyph-name="O" horiz-adv-x="759" d="M133 296Q133 361 151 424T207 538T299 619T430 651Q480 651 517 633T581 583T620 508T633 415Q633 351 615 288T560 175T469 94T344 63Q290 63 251 80T185 127T146 201T133 296ZM38 296Q38 147 117 66T344
-16Q433 -16 504 19T625 115T701 253T728 415Q728 481 708 539T649 639T555 706T430 731Q339 731 266 696T143 600T65 462T38 296Z" />
<glyph unicode="P" glyph-name="P" horiz-adv-x="648" d="M181 372L236 634H437Q461 634 482 628T519 609T544 573T554 517Q554 453 514 413T396 372H181ZM156 714L7 0H102L164 292H376Q455 292 507 314T591 371T636 444T649 517Q649 616 595 665T437 714H156Z" />
<glyph unicode="Q" glyph-name="Q" horiz-adv-x="759" d="M435 203L381 146L446 84Q401 63 344 63Q290 63 251 80T185 127T146 201T133 296Q133 361 151 424T207 538T299 619T430 651Q480 651 517 633T581 583T620 508T633 415Q633 375 626 334T604 255T567 184T514
126L435 203ZM609 -73L663 -17L576 66Q649 127 688 219T728 415Q728 481 708 539T649 639T555 706T430 731Q339 731 266 696T143 600T65 462T38 296Q38 147 117 66T344 -16Q437 -16 510 22L609 -73Z" />
<glyph unicode="R" glyph-name="R" horiz-adv-x="685" d="M158 714L7 0H102L166 305H377H415Q431 304 447 298T474 276T488 231T484 153Q473 98 474 59T482 0H581Q570 21 568 43T568 88T574 135T580 183Q583 210 581 235T570 280T546 316T507 338V340Q543 345
572 362T623 405T656 463T668 532Q668 585 649 620T596 676T521 705T433 714H158ZM183 385L236 634H433Q460 634 485 630T529 613T561 580T573 526Q573 507 567 483T541 437T488 400T397 385H183Z" />
<glyph unicode="S" glyph-name="S" horiz-adv-x="648" d="M519 503H614Q616 563 596 606T539 676T456 717T355 731Q307 731 261 718T178 679T118 615T95 524Q95 484 108 455T143 404T194 368T255 344L352 318Q378 311 401 302T441 280T469 247T479 200Q479 164
464 138T423 96T366 71T300 63Q257 63 221 71T160 100T121 153T110 234H15Q10 168 29 121T86 43T178 -1T296 -16Q344 -16 393 -3T483 36T548 103T574 200Q574 248 560 281T521 335T466 370T402 393L306 419Q282 426 261 435T224 457T199 489T190 534Q190 566 206
588T246 624T300 644T355 651Q392 651 423 644T475 620T508 574T519 503Z" />
<glyph unicode="T" glyph-name="T" horiz-adv-x="574" d="M635 634L653 714H77L60 634H300L166 0H261L395 634H635Z" />
<glyph unicode="U" glyph-name="U" horiz-adv-x="722" d="M639 286L728 714H633L543 286Q532 236 519 195T482 125T421 79T325 63Q220 63 176 114T156 270L250 714H155L66 294Q35 143 100 64T325 -16Q370 -16 412 -7T491 22T556 73T603 149Q612 170 621 207T639 286Z" />
<glyph unicode="V" glyph-name="V" horiz-adv-x="611" d="M288 0L691 714H590L251 93H249L176 714H79L181 0H288Z" />
<glyph unicode="W" glyph-name="W" horiz-adv-x="926" d="M655 0L983 714H885L625 111H623L583 714H475L201 113H199L174 714H80L125 0H227L509 616H511L556 0H655Z" />
<glyph unicode="X" glyph-name="X" horiz-adv-x="611" d="M266 373L-43 0H65L309 302L453 0H551L370 360L664 714H557L328 432L196 714H94L266 373Z" />
<glyph unicode="Y" glyph-name="Y" horiz-adv-x="611" d="M254 287L193 0H286L348 287L694 714H584L313 368L167 714H66L254 287Z" />
<glyph unicode="Z" glyph-name="Z" horiz-adv-x="611" d="M-20 79L-37 0H529L546 80H90L630 633L647 714H126L106 634H515L-20 79Z" />
<glyph unicode="[" glyph-name="bracketleft" horiz-adv-x="259" d="M163 731L-28 -197H160L174 -132H66L230 666H338L352 731H163Z" />
<glyph unicode="\" glyph-name="backslash" horiz-adv-x="333" d="M351 -16L55 731H-17L278 -16H351Z" />
<glyph unicode="]" glyph-name="bracketright" horiz-adv-x="259" d="M61 -197L253 731H64L50 666H158L-5 -132H-113L-127 -197H61Z" />
<glyph unicode="^" glyph-name="asciicircum" horiz-adv-x="600" d="M268 697L50 264H121L299 624L480 264H550L332 697H268Z" />
<glyph unicode="_" glyph-name="underscore" horiz-adv-x="500" d="M0 -74V-124H500V-74H0Z" />
<glyph unicode="`" glyph-name="grave" horiz-adv-x="222" d="M244 588L177 731H76L177 588H244Z" />
<glyph unicode="a" glyph-name="a" horiz-adv-x="519" d="M53 361H138Q142 386 155 403T187 432T229 449T277 454Q294 454 312 451T346 441T371 420T381 386Q381 360 374 345T350 322T310 311T251 304Q208 300 162 294T78 272T16 223T-9 134Q-9 94 3 67T37 22T86
-3T148 -11Q214 -11 254 8T321 63L323 61Q319 27 337 8T390 -11Q401 -11 416 -8T442 0L455 63Q449 61 442 59T428 56Q417 56 410 63T403 88Q403 106 408 126T417 162L450 303Q455 324 460 349T466 397Q466 436 451 461T409 502T349 523T277 529Q236 529 198 519T130
488T80 436T53 361ZM75 135Q76 168 92 186T133 215T189 229T252 237T310 245T356 264H358Q349 228 342 194T313 131Q269 63 168 63Q132 63 104 81T75 135Z" />
<glyph unicode="b" glyph-name="b" horiz-adv-x="593" d="M146 714L-4 0H71L90 96H92Q96 76 110 57T147 23T200 -1T266 -11Q332 -11 382 16T468 87T521 188T539 306Q539 356 527 397T489 467T426 512T336 529Q288 529 248 509T178 451L176 453L231 714H146ZM454
306Q454 269 442 226T406 147T347 87T266 63Q203 63 164 97T125 192Q125 233 137 279T174 364T240 428T336 454Q366 454 388 443T424 411T446 364T454 306Z" />
<glyph unicode="c" glyph-name="c" horiz-adv-x="537" d="M416 353H501Q498 444 447 486T307 529Q238 529 185 503T95 432T40 330T21 211Q21 105 74 47T234 -11Q325 -11 386 35T470 169H385Q367 121 328 92T234 63Q198 63 174 75T134 107T113 154T106 211Q106
253 119 296T157 375T220 432T307 454Q358 454 387 428T416 353Z" />
<glyph unicode="d" glyph-name="d" horiz-adv-x="593" d="M455 0L606 714H522L467 438H465Q457 464 440 481T401 509T353 524T304 529Q236 529 183 500T93 423T37 318T17 200Q17 153 30 114T69 48T133 5T220 -11Q272 -11 312 6T391 74H393L375 0H455ZM102 200Q102
243 115 288T154 370T218 430T307 454Q370 454 403 416T437 320Q437 280 424 235T385 151T321 88T235 63Q165 63 134 100T102 200Z" />
<glyph unicode="e" glyph-name="e" horiz-adv-x="537" d="M98 233H487Q489 244 492 262T495 300Q495 409 443 469T276 529Q223 529 175 505T90 437T32 332T10 196Q10 162 20 126T55 59T122 9T229 -11Q271 -11 309 0T378 32T431 86T463 162H378Q360 114 323 89T229
63Q203 63 179 71T136 95T106 134T95 188Q95 211 98 233ZM410 308H110Q119 338 134 364T171 411T222 442T289 454Q324 454 348 442T386 409T406 362T410 308Z" />
<glyph unicode="f" glyph-name="f" horiz-adv-x="296" d="M119 442L23 0H108L203 442H303L317 517H218Q225 541 229 564T243 605T270 635T318 647Q327 647 337 646T358 642L372 714Q355 719 337 720T301 722Q250 722 222 705T177 659T153 593T134 517H46L31 442H119Z" />
<glyph unicode="g" glyph-name="g" horiz-adv-x="574" d="M459 75L552 517H472L456 422H454V424Q448 448 433 467T395 500T346 521T290 529Q227 529 177 501T93 427T40 324T21 210Q21 163 33 124T70 57T130 13T215 -3Q264 -3 306 15T376 75L378 73Q368 35 357
-2T325 -69T274 -116T193 -134Q169 -134 146 -131T106 -118T77 -92T63 -49H-21Q-20 -92 -3 -122T43 -172T107 -200T184 -209Q268 -209 327 -176T419 -65Q430 -38 440 -2T459 75ZM106 210Q106 246 118 288T153 367T210 429T289 454Q356 454 388 417T421 319Q421
280 410 237T375 156T317 95T233 71Q201 71 177 82T138 113T114 157T106 210Z" />
<glyph unicode="h" glyph-name="h" horiz-adv-x="556" d="M146 714L-4 0H80L140 286Q148 317 161 345T197 394Q221 420 255 437T325 454Q363 454 389 437T415 382Q415 375 414 365T410 343T406 321T403 302L337 0H422L485 295Q492 325 496 352T500 396Q500 465
465 497T356 529Q302 529 253 507T172 439L170 441L231 714H146Z" />
<glyph unicode="i" glyph-name="i" horiz-adv-x="222" d="M208 610L230 714H144L122 610H208ZM103 517L-4 0H80L188 517H103Z" />
<glyph unicode="j" glyph-name="j" horiz-adv-x="222" d="M208 610L230 714H144L122 610H208ZM-104 -116L-119 -191Q-105 -195 -91 -196T-63 -197Q-12 -197 17 -171T58 -96L188 517H103L-9 -25Q-15 -52 -20 -71T-32 -101T-48 -117T-71 -122Q-79 -122 -87 -120T-104 -116Z" />
<glyph unicode="k" glyph-name="k" horiz-adv-x="481" d="M146 714L-4 0H80L119 184L221 275L322 0H417L289 326L514 517H403L143 292L141 294L230 714H146Z" />
<glyph unicode="l" glyph-name="l" horiz-adv-x="222" d="M145 714L-4 0H80L230 714H145Z" />
<glyph unicode="m" glyph-name="m" horiz-adv-x="852" d="M105 517L-4 0H80L138 271Q146 309 156 335T193 388Q216 414 250 434T320 454Q355 454 373 436T392 386Q392 377 388 351T376 295L314 0H399L456 267Q463 300 473 330T504 383Q515 397 530 410T562 432T597
448T634 454Q668 454 690 434T713 384Q713 373 711 357T705 328L633 0H718L783 310Q788 332 793 361T798 413Q798 445 786 467T754 502T707 522T654 529Q602 529 555 504T477 436Q466 487 431 508T347 529Q293 529 247 505T167 438L165 440L184 517H105Z" />
<glyph unicode="n" glyph-name="n" horiz-adv-x="556" d="M104 517L-4 0H80L140 286Q148 317 161 345T197 394Q221 420 255 437T325 454Q363 454 389 437T415 382Q415 375 414 365T410 343T406 321T403 302L337 0H422L485 295Q492 325 496 352T500 396Q500 465
465 497T356 529Q302 529 253 507T172 439H170L186 517H104Z" />
<glyph unicode="o" glyph-name="o" horiz-adv-x="574" d="M17 204Q17 157 32 118T75 50T143 5T235 -11Q303 -11 356 16T446 88T502 193T521 315Q521 420 466 474T306 529Q238 529 185 502T94 430T37 326T17 204ZM102 205Q102 245 114 289T152 369T214 430T300
454Q335 454 360 443T403 412T428 365T436 308Q436 270 424 227T387 148T327 87T244 63Q174 63 138 102T102 205Z" />
<glyph unicode="p" glyph-name="p" horiz-adv-x="593" d="M102 517L-48 -197H35L90 79H92Q99 53 116 36T156 8T204 -7T253 -11Q321 -11 374 18T464 94T520 199T540 317Q540 364 527 403T488 470T425 513T337 529Q285 529 245 511T166 443H164L182 517H102ZM455
317Q455 274 442 229T403 147T339 87T250 63Q187 63 154 101T120 197Q120 238 133 283T172 366T236 429T322 454Q392 454 423 417T455 317Z" />
<glyph unicode="q" glyph-name="q" horiz-adv-x="593" d="M102 212Q102 252 115 295T153 373T214 431T298 454Q361 454 396 421T431 327Q431 286 420 240T384 154T322 89T234 63Q199 63 174 75T133 107T110 154T102 212ZM410 -197L561 517H475L458 435H456Q435
488 391 508T289 529Q225 529 175 502T89 431T36 329T17 212Q17 164 29 123T65 52T127 6T215 -11Q263 -11 305 9T378 66H380L324 -197H410Z" />
<glyph unicode="r" glyph-name="r" horiz-adv-x="333" d="M103 517L-4 0H80L129 229Q135 258 145 291T172 350Q192 381 219 403T282 434Q297 438 307 438T333 439H345Q354 439 358 438L378 529Q370 531 363 530T348 529Q283 529 237 494T160 406H158L183 517H103Z" />
<glyph unicode="s" glyph-name="s" horiz-adv-x="481" d="M355 365H440Q440 410 423 441T379 492T316 520T245 529Q209 529 175 519T113 491T70 444T53 380Q53 351 64 329T95 291T139 262T190 240Q215 229 239 220T283 199T314 175T326 142Q326 120 316 105T288
81T250 67T208 63Q181 63 157 68T114 84T85 115T76 163H-8Q-8 113 8 80T51 26T117 -2T200 -11Q238 -11 275 -3T343 25T392 74T411 148Q411 178 399 200T368 239T325 269T274 293Q249 303 225 312T181 333T150 357T138 388Q138 408 148 420T173 440T209 451T248
454Q293 454 325 432T355 365Z" />
<glyph unicode="t" glyph-name="t" horiz-adv-x="315" d="M221 517L253 670H168L136 517H49L33 442H120L52 121Q50 109 49 99T47 78Q47 53 56 37T81 12T118 -1T163 -5Q178 -5 193 -4T223 0L238 78Q226 74 214 72T189 69Q169 69 154 76T138 104Q138 113 139 121T141
138L205 442H308L324 517H221Z" />
<glyph unicode="u" glyph-name="u" horiz-adv-x="556" d="M411 0L520 517H435L375 231Q368 199 352 169T311 115T257 77T190 63Q152 63 126 80T100 135Q100 142 101 152T104 174T108 197T112 215L178 517H93L30 222Q23 192 19 165T15 121Q15 52 50 21T159 -11Q213
-11 262 11T343 78H345L329 0H411Z" />
<glyph unicode="v" glyph-name="v" horiz-adv-x="481" d="M207 0L494 517H402L178 87H176L132 517H42L116 0H207Z" />
<glyph unicode="w" glyph-name="w" horiz-adv-x="759" d="M495 0L762 517H670L474 106H472L447 517H351L165 106H163L131 517H41L102 0H192L377 402H379L405 0H495Z" />
<glyph unicode="x" glyph-name="x" horiz-adv-x="481" d="M176 274L-65 0H37L213 212L307 0H404L272 267L494 517H391L237 329L159 517H61L176 274Z" />
<glyph unicode="y" glyph-name="y" horiz-adv-x="481" d="M163 -87L505 517H412L195 106H193L133 517H42L133 0L81 -85Q66 -110 48 -125T1 -141Q-9 -141 -23 -137T-47 -127L-62 -196Q-50 -202 -34 -205T-3 -209Q29 -209 53 -200T96 -174T131 -135T163 -87Z" />
<glyph unicode="z" glyph-name="z" d="M-40 64L-52 0H368L382 75H73L436 456L449 517H56L41 442H319L-40 64Z" />
<glyph unicode="{" glyph-name="braceleft" horiz-adv-x="333" d="M382 671L395 731H325Q306 731 285 723T245 698T211 657T190 600L152 418Q146 391 135 369T109 332T78 309T45 300L30 232Q56 232 74 212T93 156Q93 147 92 137T89 115L51 -66Q49 -77 48 -87T47
-107Q47 -129 54 -146T74 -174T101 -191T132 -197H202L215 -137H165Q144 -137 138 -122T132 -83Q132 -66 135 -49L172 131Q174 142 176 151T178 169Q178 196 171 213T153 242T131 259T113 265L114 268Q123 270 139 278T173 302T205 342T229 402L266 583Q272 616
288 643T332 671H382Z" />
<glyph unicode="|" glyph-name="bar" horiz-adv-x="222" d="M77 786V-213H145V786H77Z" />
<glyph unicode="}" glyph-name="braceright" horiz-adv-x="333" d="M-77 -137L-90 -197H-20Q-2 -197 19 -189T59 -164T93 -123T114 -66L152 115Q158 141 169 162T195 199T226 223T259 232L274 300Q248 300 230 320T211 377Q211 386 212 396T215 418L253 600Q255
611 256 621T257 641Q257 663 250 680T230 708T203 725T172 731H102L89 671H139Q160 671 166 656T172 617Q172 600 169 583L132 402Q130 391 128 382T126 364Q126 337 133 320T151 291T173 274T191 268L190 265Q181 263 165 255T131 231T98 191T75 131L38 -49Q35
-66 30 -81T16 -109T-2 -129T-27 -137H-77Z" />
<glyph unicode="~" glyph-name="asciitilde" horiz-adv-x="600" d="M531 269L495 319Q486 306 477 293T458 268T435 250T407 243Q387 243 360 257T305 283Q276 296 248 305T194 315Q169 315 150 308T115 288T88 261T69 229L105 179Q111 192 118 205T136 230T160
248T189 255Q224 255 252 243T304 216Q329 202 353 193T406 183Q429 183 447 190T481 210T508 237T531 269Z" />
</font>
</defs>
</svg>
